<?xml version="1.0"?>
<!-- Generated by SVGo -->
<svg width="1181" height="931"
     style="font-family:Ubuntu, sans-serif;" viewBox="0 0 1181 931"
     xmlns="http://www.w3.org/2000/svg"
     xmlns:xlink="http://www.w3.org/1999/xlink">
<defs>
<g id="healthCircle" transform="scale(1.1)" >

<svg xmlns="http://www.w3.org/2000/svg" width="16" height="16" viewBox="0 0 16.000017 16.000017"><g transform="translate(-952 -156.362)"><path color="#000" overflow="visible" fill="none" d="M952 156.362h16v16h-16z"/><circle r="7.25" cy="164.362" cx="960" color="#000" overflow="visible" fill="#a7a7a7" stroke="#a7a7a7" stroke-width="1.5" stroke-dashoffset=".8"/><path style="line-height:125%;-inkscape-font-specification:Ubuntu;text-align:center" d="M963.8 161.286l-.066.057L959 165.49l-2.776-2.38-.84.948 3.616 3.804 5.5-5.787-.7-.79z" font-size="15" font-family="Ubuntu" letter-spacing="0" word-spacing="0" text-anchor="middle" fill="#fff"/></g></svg>
</g>
<svg:svg xmlns:svg="http://www.w3.org/2000/svg" xmlns:xlink="http://www.w3.org/1999/xlink" id="icon-1">
&#x9;&#x9;&#x9;&#x9;&#x9;<svg:image width="96" height="96" xlink:href="../../bionic/ceph-mon/icon.svg"></svg:image>
&#x9;&#x9;&#x9;&#x9;</svg:svg><svg:svg xmlns:svg="http://www.w3.org/2000/svg" xmlns:xlink="http://www.w3.org/1999/xlink" id="icon-2">
&#x9;&#x9;&#x9;&#x9;&#x9;<svg:image width="96" height="96" xlink:href="../../bionic/ceph-osd/icon.svg"></svg:image>
&#x9;&#x9;&#x9;&#x9;</svg:svg><svg:svg xmlns:svg="http://www.w3.org/2000/svg" xmlns:xlink="http://www.w3.org/1999/xlink" id="icon-3">
&#x9;&#x9;&#x9;&#x9;&#x9;<svg:image width="96" height="96" xlink:href="../../bionic/ceph-radosgw/icon.svg"></svg:image>
&#x9;&#x9;&#x9;&#x9;</svg:svg><svg:svg xmlns:svg="http://www.w3.org/2000/svg" xmlns:xlink="http://www.w3.org/1999/xlink" id="icon-4">
&#x9;&#x9;&#x9;&#x9;&#x9;<svg:image width="96" height="96" xlink:href="../../bionic/cinder/icon.svg"></svg:image>
&#x9;&#x9;&#x9;&#x9;</svg:svg><svg:svg xmlns:svg="http://www.w3.org/2000/svg" xmlns:xlink="http://www.w3.org/1999/xlink" id="icon-5">
&#x9;&#x9;&#x9;&#x9;&#x9;<svg:image width="96" height="96" xlink:href="../../bionic/cinder-ceph/icon.svg"></svg:image>
&#x9;&#x9;&#x9;&#x9;</svg:svg><svg:svg xmlns:svg="http://www.w3.org/2000/svg" xmlns:xlink="http://www.w3.org/1999/xlink" id="icon-6">
&#x9;&#x9;&#x9;&#x9;&#x9;<svg:image width="96" height="96" xlink:href="../../bionic/glance/icon.svg"></svg:image>
&#x9;&#x9;&#x9;&#x9;</svg:svg><svg:svg xmlns:svg="http://www.w3.org/2000/svg" xmlns:xlink="http://www.w3.org/1999/xlink" id="icon-7">
&#x9;&#x9;&#x9;&#x9;&#x9;<svg:image width="96" height="96" xlink:href="../../bionic/keystone/icon.svg"></svg:image>
&#x9;&#x9;&#x9;&#x9;</svg:svg><svg:svg xmlns:svg="http://www.w3.org/2000/svg" xmlns:xlink="http://www.w3.org/1999/xlink" id="icon-8">
&#x9;&#x9;&#x9;&#x9;&#x9;<svg:image width="96" height="96" xlink:href="../../bionic/percona-cluster/icon.svg"></svg:image>
&#x9;&#x9;&#x9;&#x9;</svg:svg><svg:svg xmlns:svg="http://www.w3.org/2000/svg" xmlns:xlink="http://www.w3.org/1999/xlink" id="icon-9">
&#x9;&#x9;&#x9;&#x9;&#x9;<svg:image width="96" height="96" xlink:href="../../bionic/neutron-api/icon.svg"></svg:image>
&#x9;&#x9;&#x9;&#x9;</svg:svg><svg:svg xmlns:svg="http://www.w3.org/2000/svg" xmlns:xlink="http://www.w3.org/1999/xlink" id="icon-10">
&#x9;&#x9;&#x9;&#x9;&#x9;<svg:image width="96" height="96" xlink:href="../../bionic/neutron-gateway/icon.svg"></svg:image>
&#x9;&#x9;&#x9;&#x9;</svg:svg><svg:svg xmlns:svg="http://www.w3.org/2000/svg" xmlns:xlink="http://www.w3.org/1999/xlink" id="icon-11">
&#x9;&#x9;&#x9;&#x9;&#x9;<svg:image width="96" height="96" xlink:href="../../bionic/neutron-openvswitch/icon.svg"></svg:image>
&#x9;&#x9;&#x9;&#x9;</svg:svg><svg:svg xmlns:svg="http://www.w3.org/2000/svg" xmlns:xlink="http://www.w3.org/1999/xlink" id="icon-12">
&#x9;&#x9;&#x9;&#x9;&#x9;<svg:image width="96" height="96" xlink:href="../../bionic/nova-cloud-controller/icon.svg"></svg:image>
&#x9;&#x9;&#x9;&#x9;</svg:svg><svg:svg xmlns:svg="http://www.w3.org/2000/svg" xmlns:xlink="http://www.w3.org/1999/xlink" id="icon-13">
&#x9;&#x9;&#x9;&#x9;&#x9;<svg:image width="96" height="96" xlink:href="../../bionic/nova-compute/icon.svg"></svg:image>
&#x9;&#x9;&#x9;&#x9;</svg:svg><svg:svg xmlns:svg="http://www.w3.org/2000/svg" xmlns:xlink="http://www.w3.org/1999/xlink" id="icon-14">
&#x9;&#x9;&#x9;&#x9;&#x9;<svg:image width="96" height="96" xlink:href="../../../ntp/icon.svg"></svg:image>
&#x9;&#x9;&#x9;&#x9;</svg:svg><svg:svg xmlns:svg="http://www.w3.org/2000/svg" xmlns:xlink="http://www.w3.org/1999/xlink" id="icon-15">
&#x9;&#x9;&#x9;&#x9;&#x9;<svg:image width="96" height="96" xlink:href="../../bionic/openstack-dashboard/icon.svg"></svg:image>
&#x9;&#x9;&#x9;&#x9;</svg:svg><svg:svg xmlns:svg="http://www.w3.org/2000/svg" xmlns:xlink="http://www.w3.org/1999/xlink" id="icon-16">
&#x9;&#x9;&#x9;&#x9;&#x9;<svg:image width="96" height="96" xlink:href="../../bionic/rabbitmq-server/icon.svg"></svg:image>
&#x9;&#x9;&#x9;&#x9;</svg:svg></defs>
<circle cx="47" cy="49" r="45" id="application-icon-mask" fill="none" />
<clipPath id="clip-mask" ><use x="0" y="0" xlink:href="#application-icon-mask" />
</clipPath>
<g id="relations">
<g >
<title>nova-compute:amqp rabbitmq-server:amqp</title>
<line x1="340" y1="590" x2="590" y2="590" stroke="#a7a7a7" stroke-width="1px" stroke-dasharray="117.00, 16" />
<use x="457" y="582" xlink:href="#healthCircle" />
<circle cx="430" cy="590" r="4" fill="#a7a7a7" />
<circle cx="500" cy="590" r="4" fill="#a7a7a7" />
</g>
<g >
<title>neutron-gateway:amqp rabbitmq-server:amqp</title>
<line x1="90" y1="340" x2="590" y2="590" stroke="#a7a7a7" stroke-width="1px" stroke-dasharray="271.51, 16" />
<use x="332" y="457" xlink:href="#healthCircle" />
<circle cx="170" cy="380" r="4" fill="#a7a7a7" />
<circle cx="509" cy="549" r="4" fill="#a7a7a7" />
</g>
<g >
<title>keystone:shared-db mysql:shared-db</title>
<line x1="590" y1="340" x2="90" y2="590" stroke="#a7a7a7" stroke-width="1px" stroke-dasharray="271.51, 16" />
<use x="332" y="457" xlink:href="#healthCircle" />
<circle cx="509" cy="380" r="4" fill="#a7a7a7" />
<circle cx="170" cy="549" r="4" fill="#a7a7a7" />
</g>
<g >
<title>nova-cloud-controller:identity-service keystone:identity-service</title>
<line x1="90" y1="840" x2="590" y2="340" stroke="#a7a7a7" stroke-width="1px" stroke-dasharray="345.55, 16" />
<use x="332" y="582" xlink:href="#healthCircle" />
<circle cx="153" cy="776" r="4" fill="#a7a7a7" />
<circle cx="526" cy="403" r="4" fill="#a7a7a7" />
</g>
<g >
<title>glance:identity-service keystone:identity-service</title>
<line x1="340" y1="340" x2="590" y2="340" stroke="#a7a7a7" stroke-width="1px" stroke-dasharray="117.00, 16" />
<use x="457" y="332" xlink:href="#healthCircle" />
<circle cx="430" cy="340" r="4" fill="#a7a7a7" />
<circle cx="500" cy="340" r="4" fill="#a7a7a7" />
</g>
<g >
<title>neutron-api:identity-service keystone:identity-service</title>
<line x1="590" y1="840" x2="590" y2="340" stroke="#a7a7a7" stroke-width="1px" stroke-dasharray="242.00, 16" />
<use x="582" y="582" xlink:href="#healthCircle" />
<circle cx="590" cy="750" r="4" fill="#a7a7a7" />
<circle cx="590" cy="430" r="4" fill="#a7a7a7" />
</g>
<g >
<title>neutron-openvswitch:neutron-plugin-api neutron-api:neutron-plugin-api</title>
<line x1="340" y1="840" x2="590" y2="840" stroke="#a7a7a7" stroke-width="1px" stroke-dasharray="117.00, 16" />
<use x="457" y="832" xlink:href="#healthCircle" />
<circle cx="430" cy="840" r="4" fill="#a7a7a7" />
<circle cx="500" cy="840" r="4" fill="#a7a7a7" />
</g>
<g >
<title>neutron-api:shared-db mysql:shared-db</title>
<line x1="590" y1="840" x2="90" y2="590" stroke="#a7a7a7" stroke-width="1px" stroke-dasharray="271.51, 16" />
<use x="332" y="707" xlink:href="#healthCircle" />
<circle cx="509" cy="799" r="4" fill="#a7a7a7" />
<circle cx="170" cy="630" r="4" fill="#a7a7a7" />
</g>
<g >
<title>neutron-api:amqp rabbitmq-server:amqp</title>
<line x1="590" y1="840" x2="590" y2="590" stroke="#a7a7a7" stroke-width="1px" stroke-dasharray="117.00, 16" />
<use x="582" y="707" xlink:href="#healthCircle" />
<circle cx="590" cy="750" r="4" fill="#a7a7a7" />
<circle cx="590" cy="680" r="4" fill="#a7a7a7" />
</g>
<g >
<title>neutron-gateway:neutron-plugin-api neutron-api:neutron-plugin-api</title>
<line x1="90" y1="340" x2="590" y2="840" stroke="#a7a7a7" stroke-width="1px" stroke-dasharray="345.55, 16" />
<use x="332" y="582" xlink:href="#healthCircle" />
<circle cx="153" cy="403" r="4" fill="#a7a7a7" />
<circle cx="526" cy="776" r="4" fill="#a7a7a7" />
</g>
<g >
<title>glance:shared-db mysql:shared-db</title>
<line x1="340" y1="340" x2="90" y2="590" stroke="#a7a7a7" stroke-width="1px" stroke-dasharray="168.78, 16" />
<use x="207" y="457" xlink:href="#healthCircle" />
<circle cx="276" cy="403" r="4" fill="#a7a7a7" />
<circle cx="153" cy="526" r="4" fill="#a7a7a7" />
</g>
<g >
<title>glance:amqp rabbitmq-server:amqp</title>
<line x1="340" y1="340" x2="590" y2="590" stroke="#a7a7a7" stroke-width="1px" stroke-dasharray="168.78, 16" />
<use x="457" y="457" xlink:href="#healthCircle" />
<circle cx="403" cy="403" r="4" fill="#a7a7a7" />
<circle cx="526" cy="526" r="4" fill="#a7a7a7" />
</g>
<g >
<title>nova-cloud-controller:image-service glance:image-service</title>
<line x1="90" y1="840" x2="340" y2="340" stroke="#a7a7a7" stroke-width="1px" stroke-dasharray="271.51, 16" />
<use x="207" y="582" xlink:href="#healthCircle" />
<circle cx="130" cy="759" r="4" fill="#a7a7a7" />
<circle cx="299" cy="420" r="4" fill="#a7a7a7" />
</g>
<g >
<title>nova-compute:image-service glance:image-service</title>
<line x1="340" y1="590" x2="340" y2="340" stroke="#a7a7a7" stroke-width="1px" stroke-dasharray="117.00, 16" />
<use x="332" y="457" xlink:href="#healthCircle" />
<circle cx="340" cy="500" r="4" fill="#a7a7a7" />
<circle cx="340" cy="430" r="4" fill="#a7a7a7" />
</g>
<g >
<title>nova-cloud-controller:cloud-compute nova-compute:cloud-compute</title>
<line x1="90" y1="840" x2="340" y2="590" stroke="#a7a7a7" stroke-width="1px" stroke-dasharray="168.78, 16" />
<use x="207" y="707" xlink:href="#healthCircle" />
<circle cx="153" cy="776" r="4" fill="#a7a7a7" />
<circle cx="276" cy="653" r="4" fill="#a7a7a7" />
</g>
<g >
<title>nova-cloud-controller:amqp rabbitmq-server:amqp</title>
<line x1="90" y1="840" x2="590" y2="590" stroke="#a7a7a7" stroke-width="1px" stroke-dasharray="271.51, 16" />
<use x="332" y="707" xlink:href="#healthCircle" />
<circle cx="170" cy="799" r="4" fill="#a7a7a7" />
<circle cx="509" cy="630" r="4" fill="#a7a7a7" />
</g>
<g >
<title>nova-cloud-controller:quantum-network-service neutron-gateway:quantum-network-service</title>
<line x1="90" y1="840" x2="90" y2="340" stroke="#a7a7a7" stroke-width="1px" stroke-dasharray="242.00, 16" />
<use x="82" y="582" xlink:href="#healthCircle" />
<circle cx="90" cy="750" r="4" fill="#a7a7a7" />
<circle cx="90" cy="430" r="4" fill="#a7a7a7" />
</g>
<g >
<title>nova-compute:neutron-plugin neutron-openvswitch:neutron-plugin</title>
<line x1="340" y1="590" x2="340" y2="840" stroke="#a7a7a7" stroke-width="1px" stroke-dasharray="117.00, 16" />
<use x="332" y="707" xlink:href="#healthCircle" />
<circle cx="340" cy="680" r="4" fill="#a7a7a7" />
<circle cx="340" cy="750" r="4" fill="#a7a7a7" />
</g>
<g >
<title>neutron-openvswitch:amqp rabbitmq-server:amqp</title>
<line x1="340" y1="840" x2="590" y2="590" stroke="#a7a7a7" stroke-width="1px" stroke-dasharray="168.78, 16" />
<use x="457" y="707" xlink:href="#healthCircle" />
<circle cx="403" cy="776" r="4" fill="#a7a7a7" />
<circle cx="526" cy="653" r="4" fill="#a7a7a7" />
</g>
<g >
<title>openstack-dashboard:identity-service keystone:identity-service</title>
<line x1="590" y1="90" x2="590" y2="340" stroke="#a7a7a7" stroke-width="1px" stroke-dasharray="117.00, 16" />
<use x="582" y="207" xlink:href="#healthCircle" />
<circle cx="590" cy="180" r="4" fill="#a7a7a7" />
<circle cx="590" cy="250" r="4" fill="#a7a7a7" />
</g>
<g >
<title>openstack-dashboard:shared-db mysql:shared-db</title>
<line x1="590" y1="90" x2="90" y2="590" stroke="#a7a7a7" stroke-width="1px" stroke-dasharray="345.55, 16" />
<use x="332" y="332" xlink:href="#healthCircle" />
<circle cx="526" cy="153" r="4" fill="#a7a7a7" />
<circle cx="153" cy="526" r="4" fill="#a7a7a7" />
</g>
<g >
<title>nova-cloud-controller:shared-db mysql:shared-db</title>
<line x1="90" y1="840" x2="90" y2="590" stroke="#a7a7a7" stroke-width="1px" stroke-dasharray="117.00, 16" />
<use x="82" y="707" xlink:href="#healthCircle" />
<circle cx="90" cy="750" r="4" fill="#a7a7a7" />
<circle cx="90" cy="680" r="4" fill="#a7a7a7" />
</g>
<g >
<title>nova-cloud-controller:neutron-api neutron-api:neutron-api</title>
<line x1="90" y1="840" x2="590" y2="840" stroke="#a7a7a7" stroke-width="1px" stroke-dasharray="242.00, 16" />
<use x="332" y="832" xlink:href="#healthCircle" />
<circle cx="180" cy="840" r="4" fill="#a7a7a7" />
<circle cx="500" cy="840" r="4" fill="#a7a7a7" />
</g>
<g >
<title>cinder:image-service glance:image-service</title>
<line x1="840" y1="340" x2="340" y2="340" stroke="#a7a7a7" stroke-width="1px" stroke-dasharray="242.00, 16" />
<use x="582" y="332" xlink:href="#healthCircle" />
<circle cx="750" cy="340" r="4" fill="#a7a7a7" />
<circle cx="430" cy="340" r="4" fill="#a7a7a7" />
</g>
<g >
<title>cinder:amqp rabbitmq-server:amqp</title>
<line x1="840" y1="340" x2="590" y2="590" stroke="#a7a7a7" stroke-width="1px" stroke-dasharray="168.78, 16" />
<use x="707" y="457" xlink:href="#healthCircle" />
<circle cx="776" cy="403" r="4" fill="#a7a7a7" />
<circle cx="653" cy="526" r="4" fill="#a7a7a7" />
</g>
<g >
<title>cinder:identity-service keystone:identity-service</title>
<line x1="840" y1="340" x2="590" y2="340" stroke="#a7a7a7" stroke-width="1px" stroke-dasharray="117.00, 16" />
<use x="707" y="332" xlink:href="#healthCircle" />
<circle cx="750" cy="340" r="4" fill="#a7a7a7" />
<circle cx="680" cy="340" r="4" fill="#a7a7a7" />
</g>
<g >
<title>cinder:cinder-volume-service nova-cloud-controller:cinder-volume-service</title>
<line x1="840" y1="340" x2="90" y2="840" stroke="#a7a7a7" stroke-width="1px" stroke-dasharray="442.69, 16" />
<use x="457" y="582" xlink:href="#healthCircle" />
<circle cx="765" cy="389" r="4" fill="#a7a7a7" />
<circle cx="164" cy="790" r="4" fill="#a7a7a7" />
</g>
<g >
<title>cinder-ceph:storage-backend cinder:storage-backend</title>
<line x1="840" y1="590" x2="840" y2="340" stroke="#a7a7a7" stroke-width="1px" stroke-dasharray="117.00, 16" />
<use x="832" y="457" xlink:href="#healthCircle" />
<circle cx="840" cy="500" r="4" fill="#a7a7a7" />
<circle cx="840" cy="430" r="4" fill="#a7a7a7" />
</g>
<g >
<title>ceph-mon:client nova-compute:ceph</title>
<line x1="840" y1="840" x2="340" y2="590" stroke="#a7a7a7" stroke-width="1px" stroke-dasharray="271.51, 16" />
<use x="582" y="707" xlink:href="#healthCircle" />
<circle cx="759" cy="799" r="4" fill="#a7a7a7" />
<circle cx="420" cy="630" r="4" fill="#a7a7a7" />
</g>
<g >
<title>nova-compute:ceph-access cinder-ceph:ceph-access</title>
<line x1="340" y1="590" x2="840" y2="590" stroke="#a7a7a7" stroke-width="1px" stroke-dasharray="242.00, 16" />
<use x="582" y="582" xlink:href="#healthCircle" />
<circle cx="430" cy="590" r="4" fill="#a7a7a7" />
<circle cx="750" cy="590" r="4" fill="#a7a7a7" />
</g>
<g >
<title>cinder:shared-db mysql:shared-db</title>
<line x1="840" y1="340" x2="90" y2="590" stroke="#a7a7a7" stroke-width="1px" stroke-dasharray="387.28, 16" />
<use x="457" y="457" xlink:href="#healthCircle" />
<circle cx="754" cy="368" r="4" fill="#a7a7a7" />
<circle cx="175" cy="561" r="4" fill="#a7a7a7" />
</g>
<g >
<title>ceph-mon:client cinder-ceph:ceph</title>
<line x1="840" y1="840" x2="840" y2="590" stroke="#a7a7a7" stroke-width="1px" stroke-dasharray="117.00, 16" />
<use x="832" y="707" xlink:href="#healthCircle" />
<circle cx="840" cy="750" r="4" fill="#a7a7a7" />
<circle cx="840" cy="680" r="4" fill="#a7a7a7" />
</g>
<g >
<title>ceph-mon:client glance:ceph</title>
<line x1="840" y1="840" x2="340" y2="340" stroke="#a7a7a7" stroke-width="1px" stroke-dasharray="345.55, 16" />
<use x="582" y="582" xlink:href="#healthCircle" />
<circle cx="776" cy="776" r="4" fill="#a7a7a7" />
<circle cx="403" cy="403" r="4" fill="#a7a7a7" />
</g>
<g >
<title>ceph-osd:mon ceph-mon:osd</title>
<line x1="1090" y1="840" x2="840" y2="840" stroke="#a7a7a7" stroke-width="1px" stroke-dasharray="117.00, 16" />
<use x="957" y="832" xlink:href="#healthCircle" />
<circle cx="1000" cy="840" r="4" fill="#a7a7a7" />
<circle cx="930" cy="840" r="4" fill="#a7a7a7" />
</g>
<g >
<title>ntp:juju-info nova-compute:juju-info</title>
<line x1="1090" y1="340" x2="340" y2="590" stroke="#a7a7a7" stroke-width="1px" stroke-dasharray="387.28, 16" />
<use x="707" y="457" xlink:href="#healthCircle" />
<circle cx="1004" cy="368" r="4" fill="#a7a7a7" />
<circle cx="425" cy="561" r="4" fill="#a7a7a7" />
</g>
<g >
<title>ntp:juju-info neutron-gateway:juju-info</title>
<line x1="1090" y1="340" x2="90" y2="340" stroke="#a7a7a7" stroke-width="1px" stroke-dasharray="492.00, 16" />
<use x="582" y="332" xlink:href="#healthCircle" />
<circle cx="1000" cy="340" r="4" fill="#a7a7a7" />
<circle cx="180" cy="340" r="4" fill="#a7a7a7" />
</g>
<g >
<title>ceph-radosgw:mon ceph-mon:radosgw</title>
<line x1="1090" y1="590" x2="840" y2="840" stroke="#a7a7a7" stroke-width="1px" stroke-dasharray="168.78, 16" />
<use x="957" y="707" xlink:href="#healthCircle" />
<circle cx="1026" cy="653" r="4" fill="#a7a7a7" />
<circle cx="903" cy="776" r="4" fill="#a7a7a7" />
</g>
<g >
<title>ceph-radosgw:identity-service keystone:identity-service</title>
<line x1="1090" y1="590" x2="590" y2="340" stroke="#a7a7a7" stroke-width="1px" stroke-dasharray="271.51, 16" />
<use x="832" y="457" xlink:href="#healthCircle" />
<circle cx="1009" cy="549" r="4" fill="#a7a7a7" />
<circle cx="670" cy="380" r="4" fill="#a7a7a7" />
</g>
</g>
<g id="applications">
<g transform="translate(750,750)" >
<title>ceph-mon</title>
<circle cx="90" cy="90" r="90" class="application-block" fill="#f5f5f5" stroke="#888" stroke-width="1" />
<use x="0" y="0" xlink:href="#icon-1" transform="translate(42,42)" width="96" height="96" clip-path="url(#clip-mask)" />
<rect x="0" y="135" width="180" height="32" rx="2" ry="2" fill="rgba(220, 220, 220, 0.8)" />
<text x="90" y="157" text-anchor="middle" style="font-weight:200" >ceph-mon</text>
</g>
<g transform="translate(1000,750)" >
<title>ceph-osd</title>
<circle cx="90" cy="90" r="90" class="application-block" fill="#f5f5f5" stroke="#888" stroke-width="1" />
<use x="0" y="0" xlink:href="#icon-2" transform="translate(42,42)" width="96" height="96" clip-path="url(#clip-mask)" />
<rect x="0" y="135" width="180" height="32" rx="2" ry="2" fill="rgba(220, 220, 220, 0.8)" />
<text x="90" y="157" text-anchor="middle" style="font-weight:200" >ceph-osd</text>
</g>
<g transform="translate(1000,500)" >
<title>ceph-radosgw</title>
<circle cx="90" cy="90" r="90" class="application-block" fill="#f5f5f5" stroke="#888" stroke-width="1" />
<use x="0" y="0" xlink:href="#icon-3" transform="translate(42,42)" width="96" height="96" clip-path="url(#clip-mask)" />
<rect x="0" y="135" width="180" height="32" rx="2" ry="2" fill="rgba(220, 220, 220, 0.8)" />
<text x="90" y="157" text-anchor="middle" style="font-weight:200" >ceph-radosgw</text>
</g>
<g transform="translate(750,250)" >
<title>cinder</title>
<circle cx="90" cy="90" r="90" class="application-block" fill="#f5f5f5" stroke="#888" stroke-width="1" />
<use x="0" y="0" xlink:href="#icon-4" transform="translate(42,42)" width="96" height="96" clip-path="url(#clip-mask)" />
<rect x="0" y="135" width="180" height="32" rx="2" ry="2" fill="rgba(220, 220, 220, 0.8)" />
<text x="90" y="157" text-anchor="middle" style="font-weight:200" >cinder</text>
</g>
<g transform="translate(750,500)" >
<title>cinder-ceph</title>
<circle cx="90" cy="90" r="90" class="application-block" fill="#f5f5f5" stroke="#888" stroke-width="1" />
<use x="0" y="0" xlink:href="#icon-5" transform="translate(42,42)" width="96" height="96" clip-path="url(#clip-mask)" />
<rect x="0" y="135" width="180" height="32" rx="2" ry="2" fill="rgba(220, 220, 220, 0.8)" />
<text x="90" y="157" text-anchor="middle" style="font-weight:200" >cinder-ceph</text>
</g>
<g transform="translate(250,250)" >
<title>glance</title>
<circle cx="90" cy="90" r="90" class="application-block" fill="#f5f5f5" stroke="#888" stroke-width="1" />
<use x="0" y="0" xlink:href="#icon-6" transform="translate(42,42)" width="96" height="96" clip-path="url(#clip-mask)" />
<rect x="0" y="135" width="180" height="32" rx="2" ry="2" fill="rgba(220, 220, 220, 0.8)" />
<text x="90" y="157" text-anchor="middle" style="font-weight:200" >glance</text>
</g>
<g transform="translate(500,250)" >
<title>keystone</title>
<circle cx="90" cy="90" r="90" class="application-block" fill="#f5f5f5" stroke="#888" stroke-width="1" />
<use x="0" y="0" xlink:href="#icon-7" transform="translate(42,42)" width="96" height="96" clip-path="url(#clip-mask)" />
<rect x="0" y="135" width="180" height="32" rx="2" ry="2" fill="rgba(220, 220, 220, 0.8)" />
<text x="90" y="157" text-anchor="middle" style="font-weight:200" >keystone</text>
</g>
<g transform="translate(0,500)" >
<title>mysql</title>
<circle cx="90" cy="90" r="90" class="application-block" fill="#f5f5f5" stroke="#888" stroke-width="1" />
<use x="0" y="0" xlink:href="#icon-8" transform="translate(42,42)" width="96" height="96" clip-path="url(#clip-mask)" />
<rect x="0" y="135" width="180" height="32" rx="2" ry="2" fill="rgba(220, 220, 220, 0.8)" />
<text x="90" y="157" text-anchor="middle" style="font-weight:200" >mysql</text>
</g>
<g transform="translate(500,750)" >
<title>neutron-api</title>
<circle cx="90" cy="90" r="90" class="application-block" fill="#f5f5f5" stroke="#888" stroke-width="1" />
<use x="0" y="0" xlink:href="#icon-9" transform="translate(42,42)" width="96" height="96" clip-path="url(#clip-mask)" />
<rect x="0" y="135" width="180" height="32" rx="2" ry="2" fill="rgba(220, 220, 220, 0.8)" />
<text x="90" y="157" text-anchor="middle" style="font-weight:200" >neutron-api</text>
</g>
<g transform="translate(0,250)" >
<title>neutron-gateway</title>
<circle cx="90" cy="90" r="90" class="application-block" fill="#f5f5f5" stroke="#888" stroke-width="1" />
<use x="0" y="0" xlink:href="#icon-10" transform="translate(42,42)" width="96" height="96" clip-path="url(#clip-mask)" />
<rect x="0" y="135" width="180" height="32" rx="2" ry="2" fill="rgba(220, 220, 220, 0.8)" />
<text x="90" y="157" text-anchor="middle" style="font-weight:200" >neutron-gateway</text>
</g>
<g transform="translate(250,750)" >
<title>neutron-openvswitch</title>
<circle cx="90" cy="90" r="90" class="application-block" fill="#f5f5f5" stroke="#888" stroke-width="1" />
<use x="0" y="0" xlink:href="#icon-11" transform="translate(42,42)" width="96" height="96" clip-path="url(#clip-mask)" />
<rect x="0" y="135" width="180" height="32" rx="2" ry="2" fill="rgba(220, 220, 220, 0.8)" />
<text x="90" y="157" text-anchor="middle" style="font-weight:200" >neutron-openvswitch</text>
</g>
<g transform="translate(0,750)" >
<title>nova-cloud-controller</title>
<circle cx="90" cy="90" r="90" class="application-block" fill="#f5f5f5" stroke="#888" stroke-width="1" />
<use x="0" y="0" xlink:href="#icon-12" transform="translate(42,42)" width="96" height="96" clip-path="url(#clip-mask)" />
<rect x="0" y="135" width="180" height="32" rx="2" ry="2" fill="rgba(220, 220, 220, 0.8)" />
<text x="90" y="157" text-anchor="middle" style="font-weight:200" >nova-cloud-contro...</text>
</g>
<g transform="translate(250,500)" >
<title>nova-compute</title>
<circle cx="90" cy="90" r="90" class="application-block" fill="#f5f5f5" stroke="#888" stroke-width="1" />
<use x="0" y="0" xlink:href="#icon-13" transform="translate(42,42)" width="96" height="96" clip-path="url(#clip-mask)" />
<rect x="0" y="135" width="180" height="32" rx="2" ry="2" fill="rgba(220, 220, 220, 0.8)" />
<text x="90" y="157" text-anchor="middle" style="font-weight:200" >nova-compute</text>
</g>
<g transform="translate(1000,250)" >
<title>ntp</title>
<circle cx="90" cy="90" r="90" class="application-block" fill="#f5f5f5" stroke="#888" stroke-width="1" />
<use x="0" y="0" xlink:href="#icon-14" transform="translate(42,42)" width="96" height="96" clip-path="url(#clip-mask)" />
<rect x="0" y="135" width="180" height="32" rx="2" ry="2" fill="rgba(220, 220, 220, 0.8)" />
<text x="90" y="157" text-anchor="middle" style="font-weight:200" >ntp</text>
</g>
<g transform="translate(500,0)" >
<title>openstack-dashboard</title>
<circle cx="90" cy="90" r="90" class="application-block" fill="#f5f5f5" stroke="#888" stroke-width="1" />
<use x="0" y="0" xlink:href="#icon-15" transform="translate(42,42)" width="96" height="96" clip-path="url(#clip-mask)" />
<rect x="0" y="135" width="180" height="32" rx="2" ry="2" fill="rgba(220, 220, 220, 0.8)" />
<text x="90" y="157" text-anchor="middle" style="font-weight:200" >openstack-dashboard</text>
</g>
<g transform="translate(500,500)" >
<title>rabbitmq-server</title>
<circle cx="90" cy="90" r="90" class="application-block" fill="#f5f5f5" stroke="#888" stroke-width="1" />
<use x="0" y="0" xlink:href="#icon-16" transform="translate(42,42)" width="96" height="96" clip-path="url(#clip-mask)" />
<rect x="0" y="135" width="180" height="32" rx="2" ry="2" fill="rgba(220, 220, 220, 0.8)" />
<text x="90" y="157" text-anchor="middle" style="font-weight:200" >rabbitmq-server</text>
</g>
</g>
</svg>
