<?xml version="1.0" encoding="UTF-8" standalone="no"?>
<!-- Generator: Adobe Illustrator 17.0.2, SVG Export Plug-In . SVG Version: 6.00 Build 0)  -->
<!DOCTYPE svg  PUBLIC '-//W3C//DTD SVG 1.1//EN'  'http://www.w3.org/Graphics/SVG/1.1/DTD/svg11.dtd'>
<svg xmlns="http://www.w3.org/2000/svg" xml:space="preserve" height="54px" width="131px" version="1.1" y="0px" x="0px" xmlns:xlink="http://www.w3.org/1999/xlink" viewBox="0 0 131 54" enable-background="new 0 0 131 54">
<g id="Comp">
	<path d="m26.998 0c-14.911 0-26.998 12.086-26.998 27s12.087 27 26.998 27c14.912 0 27.002-12.086 27.002-27s-12.09-27-27.002-27z" fill="#DA4814"/>
	<path d="m13.896 43.695c-0.229 0.23-0.535 0.355-0.859 0.355-0.326 0-0.633-0.125-0.861-0.355-0.229-0.232-0.357-0.537-0.357-0.863 0-0.322 0.127-0.627 0.357-0.856 0.228-0.232 0.534-0.36 0.861-0.36 0.323 0 0.629 0.127 0.859 0.36 0.229 0.229 0.355 0.534 0.355 0.856 0 0.326-0.126 0.631-0.355 0.863z" fill="#fff"/>
	<path d="m19.193 25.536c-0.122-0.389-0.298-0.708-0.523-0.951-0.223-0.243-0.496-0.422-0.807-0.537-0.315-0.115-0.668-0.176-1.055-0.176-0.386 0-0.739 0.06-1.044 0.176-0.307 0.115-0.576 0.295-0.798 0.537-0.226 0.244-0.402 0.562-0.526 0.951-0.123 0.397-0.186 0.874-0.186 1.429v14.15h-2.442v-14.368c0-0.725 0.1-1.394 0.291-2.004 0.194-0.608 0.5-1.142 0.909-1.592 0.408-0.453 0.93-0.808 1.55-1.057 0.619-0.251 1.368-0.376 2.227-0.376 0.858 0 1.613 0.125 2.243 0.376 0.633 0.249 1.16 0.604 1.569 1.057 0.408 0.451 0.718 0.985 0.917 1.592 0.201 0.605 0.302 1.279 0.302 2.004v1.951h-2.443v-1.733c0.004-0.555-0.059-1.032-0.184-1.429z" fill="#fff"/>
	<path d="m29.388 35.459c0 0.724-0.102 1.4-0.299 2.004-0.202 0.609-0.509 1.141-0.919 1.593-0.408 0.452-0.937 0.808-1.568 1.057-0.632 0.25-1.387 0.377-2.246 0.377-0.856 0-1.604-0.127-2.225-0.377-0.619-0.249-1.141-0.605-1.55-1.055-0.409-0.454-0.713-0.987-0.908-1.595-0.194-0.604-0.291-1.28-0.291-2.004v-6.174h2.442v5.954c0 0.557 0.063 1.034 0.186 1.428 0.121 0.392 0.298 0.711 0.523 0.953s0.493 0.422 0.798 0.537c0.307 0.116 0.658 0.176 1.045 0.176 0.386 0 0.74-0.06 1.053-0.176 0.311-0.115 0.584-0.295 0.809-0.537 0.223-0.243 0.399-0.561 0.523-0.953 0.121-0.394 0.185-0.871 0.185-1.428v-5.954h2.441v6.174h0.001z" fill="#fff"/>
	<path d="m26.952 27.498c0-0.667 0.545-1.213 1.215-1.213s1.217 0.546 1.217 1.213c0 0.672-0.546 1.221-1.217 1.221-0.669 0-1.215-0.549-1.215-1.221z" fill="#fff"/>
	<path d="m34.326 10.266c-0.123-0.387-0.3-0.711-0.526-0.953-0.222-0.243-0.496-0.422-0.806-0.537-0.314-0.117-0.666-0.177-1.054-0.177-0.386 0-0.737 0.06-1.043 0.177-0.307 0.115-0.576 0.295-0.801 0.537-0.226 0.242-0.399 0.561-0.522 0.953-0.123 0.393-0.188 0.871-0.188 1.428v14.148h-2.442v-14.367c0-0.72 0.099-1.395 0.293-2.004s0.499-1.142 0.908-1.592c0.407-0.453 0.928-0.81 1.551-1.055 0.619-0.254 1.368-0.381 2.224-0.381 0.859 0 1.615 0.127 2.246 0.377 0.632 0.249 1.16 0.605 1.568 1.058 0.408 0.45 0.717 0.983 0.917 1.592s0.302 1.284 0.302 2.008v1.947h-2.442v-1.731c0.001-0.557-0.063-1.035-0.185-1.428z" fill="#fff"/>
	<path d="m44.517 20.187c0 0.724-0.099 1.398-0.3 2.004-0.198 0.608-0.509 1.147-0.916 1.595-0.41 0.451-0.937 0.81-1.569 1.055-0.632 0.251-1.388 0.377-2.243 0.377-0.859 0-1.609-0.126-2.228-0.377-0.619-0.245-1.141-0.604-1.55-1.055-0.408-0.448-0.714-0.987-0.909-1.595-0.195-0.605-0.291-1.279-0.291-2.004v-6.172h2.442v5.954c0 0.555 0.063 1.037 0.185 1.429 0.123 0.39 0.298 0.708 0.524 0.952 0.224 0.242 0.493 0.422 0.799 0.537 0.308 0.115 0.658 0.176 1.045 0.176s0.74-0.06 1.052-0.176c0.313-0.115 0.583-0.295 0.808-0.537 0.225-0.244 0.4-0.562 0.523-0.952 0.122-0.392 0.186-0.874 0.186-1.429v-5.954h2.442v6.172z" fill="#fff"/>
	<path d="m61.73 46.33c-0.361 0-0.826-0.044-1.401-0.135-0.572-0.092-1.054-0.211-1.447-0.361l0.543-3.438c0.302 0.092 0.649 0.168 1.04 0.226 0.392 0.061 0.754 0.092 1.086 0.092 1.447 0 2.477-0.444 3.097-1.335 0.616-0.89 0.927-2.191 0.927-3.912v-23.106h4.205v23.063c0 3.013-0.687 5.251-2.059 6.715-1.37 1.463-3.367 2.191-5.991 2.191z" fill="#333"/>
	<path d="m94.875 37.196c-0.967 0.243-2.239 0.499-3.82 0.77-1.583 0.271-3.413 0.406-5.496 0.406-1.807 0-3.331-0.263-4.566-0.79-1.237-0.528-2.232-1.273-2.986-2.24-0.753-0.962-1.294-2.102-1.627-3.413-0.332-1.312-0.497-2.765-0.497-4.362v-13.206h4.204v12.301c0 2.864 0.452 4.913 1.357 6.148 0.904 1.238 2.427 1.853 4.568 1.853 0.452 0 0.919-0.015 1.401-0.046 0.482-0.029 0.933-0.066 1.356-0.111 0.423-0.047 0.805-0.089 1.153-0.133 0.345-0.045 0.595-0.098 0.746-0.161v-19.851h4.206v22.835h0.001z" fill="#333"/>
	<path d="m97.632 46.33c-0.361 0-0.828-0.044-1.4-0.135-0.572-0.092-1.055-0.211-1.447-0.361l0.542-3.438c0.303 0.092 0.648 0.168 1.041 0.226 0.393 0.061 0.752 0.092 1.085 0.092 1.447 0 2.48-0.444 3.097-1.335 0.617-0.89 0.928-2.191 0.928-3.912v-23.106h4.204v23.063c0 3.013-0.685 5.251-2.057 6.715-1.37 1.463-3.37 2.191-5.988 2.191z" fill="#333"/>
	<path d="m130.78 37.196c-0.965 0.243-2.236 0.499-3.821 0.77-1.582 0.271-3.413 0.406-5.492 0.406-1.81 0-3.333-0.263-4.568-0.79-1.236-0.528-2.232-1.273-2.985-2.24-0.754-0.962-1.295-2.102-1.629-3.413-0.332-1.312-0.497-2.765-0.497-4.362v-13.206h4.205v12.301c0 2.864 0.453 4.913 1.359 6.148 0.901 1.238 2.425 1.853 4.566 1.853 0.451 0 0.92-0.015 1.403-0.046 0.481-0.029 0.932-0.066 1.355-0.111 0.422-0.047 0.806-0.089 1.152-0.133 0.346-0.045 0.595-0.098 0.746-0.161v-19.851h4.205v22.835z" fill="#333"/>
</g>
</svg>
