<?xml version="1.0" encoding="UTF-8" standalone="no"?>
<!-- Generator: Adobe Illustrator 16.0.4, SVG Export Plug-In . SVG Version: 6.00 Build 0)  -->

<svg
   xmlns:dc="http://purl.org/dc/elements/1.1/"
   xmlns:cc="http://creativecommons.org/ns#"
   xmlns:rdf="http://www.w3.org/1999/02/22-rdf-syntax-ns#"
   xmlns:svg="http://www.w3.org/2000/svg"
   xmlns="http://www.w3.org/2000/svg"
   xmlns:sodipodi="http://sodipodi.sourceforge.net/DTD/sodipodi-0.dtd"
   xmlns:inkscape="http://www.inkscape.org/namespaces/inkscape"
   version="1.1"
   id="AW"
   x="0px"
   y="0px"
   width="702"
   height="702"
   viewBox="0 0 701.99998 701.99998"
   enable-background="new 0 0 1190.55 841.89"
   xml:space="preserve"
   sodipodi:docname="juju.svg"
   inkscape:version="0.92.3 (2405546, 2018-03-11)"><metadata
   id="metadata37"><rdf:RDF><cc:Work
       rdf:about=""><dc:format>image/svg+xml</dc:format><dc:type
         rdf:resource="http://purl.org/dc/dcmitype/StillImage" /><dc:title></dc:title></cc:Work></rdf:RDF></metadata><defs
   id="defs35" /><sodipodi:namedview
   pagecolor="#ffffff"
   bordercolor="#666666"
   borderopacity="1"
   objecttolerance="10"
   gridtolerance="10"
   guidetolerance="10"
   inkscape:pageopacity="0"
   inkscape:pageshadow="2"
   inkscape:window-width="1065"
   inkscape:window-height="480"
   id="namedview33"
   showgrid="false"
   inkscape:zoom="0.28032165"
   inkscape:cx="285.94501"
   inkscape:cy="384.89946"
   inkscape:window-x="67"
   inkscape:window-y="29"
   inkscape:window-maximized="0"
   inkscape:current-layer="g30" />
<g
   id="g30"
   transform="translate(-309.33001,181.54199)">
	<g
   id="g18"
   transform="matrix(3.5378786,0,0,3.5378786,-785.04196,-1320.8592)">
		<circle
   cx="408.54199"
   cy="421.246"
   r="99.211998"
   id="circle2"
   style="fill:#e95420" />
		<g
   id="g16">
			<circle
   cx="414.21201"
   cy="415.57599"
   r="6.1420002"
   id="circle4"
   style="fill:#ffffff" />
			<path
   d="m 419.881,404.237 h -11.338 v -45.354 c 0,-10.94 8.902,-19.842 19.842,-19.842 10.941,0 19.842,8.902 19.842,19.842 v 11.339 l -11.338,-10e-4 v -11.338 c 0,-2.272 -0.885,-4.408 -2.491,-6.014 -1.606,-1.604 -3.741,-2.491 -6.013,-2.491 -4.689,0 -8.504,3.816 -8.504,8.505 z"
   id="path6"
   inkscape:connector-curvature="0"
   style="fill:#ffffff" />
			<path
   d="m 456.731,424.079 c -10.941,0 -19.843,-8.9 -19.843,-19.842 v -28.345 h 11.338 v 28.345 c 0,4.69 3.815,8.505 8.504,8.505 4.689,0 8.503,-3.814 8.503,-8.505 v -28.345 h 11.339 v 28.345 c 0,5.3 -2.064,10.283 -5.812,14.031 -3.745,3.749 -8.728,5.811 -14.029,5.811 z"
   id="path8"
   inkscape:connector-curvature="0"
   style="fill:#ffffff" />
			<circle
   cx="357.51901"
   cy="483.60501"
   r="6.1420002"
   id="circle10"
   style="fill:#ffffff" />
			<path
   d="M 363.188,472.269 H 351.85 v -62.361 c 0,-10.941 8.901,-19.842 19.843,-19.842 10.941,0 19.842,8.901 19.842,19.842 v 11.339 h -11.339 v -11.339 c 0,-2.272 -0.884,-4.408 -2.491,-6.014 -1.606,-1.604 -3.742,-2.491 -6.013,-2.491 -4.689,0 -8.504,3.816 -8.504,8.505 z"
   id="path12"
   inkscape:connector-curvature="0"
   style="fill:#ffffff" />
			<path
   d="m 400.039,475.103 c -10.941,0 -19.843,-8.901 -19.843,-19.844 v -28.345 h 11.339 v 28.347 c 0,4.687 3.815,8.503 8.504,8.503 4.689,0 8.504,-3.816 8.504,-8.505 v -28.345 h 11.338 v 28.347 c 0,5.298 -2.064,10.28 -5.812,14.029 -3.748,3.748 -8.731,5.813 -14.03,5.813 z"
   id="path14"
   inkscape:connector-curvature="0"
   style="fill:#ffffff" />
		</g>
	</g>
	
</g>
</svg>