<?xml version="1.0" encoding="UTF-8" standalone="no"?>
<svg
   xmlns:dc="http://purl.org/dc/elements/1.1/"
   xmlns:cc="http://creativecommons.org/ns#"
   xmlns:rdf="http://www.w3.org/1999/02/22-rdf-syntax-ns#"
   xmlns:svg="http://www.w3.org/2000/svg"
   xmlns="http://www.w3.org/2000/svg"
   xmlns:sodipodi="http://sodipodi.sourceforge.net/DTD/sodipodi-0.dtd"
   xmlns:inkscape="http://www.inkscape.org/namespaces/inkscape"
   width="75.592438"
   height="73.84523"
   version="1.1"
   id="svg1479"
   sodipodi:docname="k8s-wheel.svg"
   inkscape:version="0.92.2 5c3e80d, 2017-08-06">
  <metadata
     id="metadata1485">
    <rdf:RDF>
      <cc:Work
         rdf:about="">
        <dc:format>image/svg+xml</dc:format>
        <dc:type
           rdf:resource="http://purl.org/dc/dcmitype/StillImage" />
        <dc:title></dc:title>
      </cc:Work>
    </rdf:RDF>
  </metadata>
  <defs
     id="defs1483" />
  <sodipodi:namedview
     pagecolor="#ffffff"
     bordercolor="#666666"
     borderopacity="1"
     objecttolerance="10"
     gridtolerance="10"
     guidetolerance="10"
     inkscape:pageopacity="0"
     inkscape:pageshadow="2"
     inkscape:window-width="810"
     inkscape:window-height="480"
     id="namedview1481"
     showgrid="false"
     inkscape:zoom="2.4813802"
     inkscape:cx="-7.3411852"
     inkscape:cy="36.922788"
     inkscape:window-x="703"
     inkscape:window-y="98"
     inkscape:window-maximized="0"
     inkscape:current-layer="layer2"
     inkscape:pagecheckerboard="true"
     showborder="true" />
  <g
     inkscape:groupmode="layer"
     id="layer2"
     inkscape:label="wheel"
     transform="translate(-13.734248,-13.075763)">
    <path
       d="m 51.528234,13.094203 c -1.1844,1.2e-4 -2.1447,1.0669 -2.1445,2.3828 0,0.0202 0.004,0.0395 0.0045,0.0596 -0.0015,0.1788 -0.01035,0.39421 -0.0045,0.54988 0.02825,0.75898 0.19369,1.3399 0.29327,2.0391 0.1804,1.4966 0.33157,2.7373 0.23828,3.8904 -0.09072,0.43483 -0.411,0.83251 -0.69652,1.1089 l -0.0504,0.90731 c -1.287,0.10662 -2.5826,0.30188 -3.8767,0.5957 -5.5684,1.2643 -10.363,4.1326 -14.013,8.0053 -0.23685,-0.16158 -0.65121,-0.45884 -0.77442,-0.54988 -0.38289,0.0517 -0.76986,0.16985 -1.2739,-0.12372 -0.95971,-0.64602 -1.8338,-1.5378 -2.8915,-2.6119 -0.48462,-0.51384 -0.83557,-1.0031 -1.4114,-1.4984 -0.13076,-0.11248 -0.33031,-0.26461 -0.47656,-0.38033 -0.45015,-0.3589 -0.98109,-0.54607 -1.4938,-0.56363 -0.65925,-0.0226 -1.2939,0.23518 -1.7092,0.75609 -0.73834,0.92605 -0.50195,2.3415 0.52697,3.1618 0.01044,0.008 0.02155,0.0147 0.03207,0.0229 0.14139,0.11461 0.31453,0.26147 0.44449,0.35742 0.61101,0.45113 1.1691,0.68207 1.7779,1.0402 1.2826,0.79209 2.3459,1.4489 3.1893,2.2408 0.32934,0.35107 0.38691,0.96969 0.43074,1.2372 l 0.68735,0.61403 c -3.6796,5.5375 -5.3825,12.377 -4.3761,19.347 l -0.89814,0.2612 c -0.23671,0.30567 -0.5712,0.78666 -0.92106,0.93021 -1.1034,0.34756 -2.3453,0.47518 -3.8446,0.63236 -0.70389,0.0585 -1.3112,0.0236 -2.0575,0.16497 -0.16424,0.0312 -0.39309,0.0907 -0.57279,0.13288 -0.0062,0.001 -0.01208,0.003 -0.01833,0.005 -0.0098,0.003 -0.02266,0.007 -0.03207,0.009 -1.264,0.30541 -2.076,1.4672 -1.8146,2.6119 0.26147,1.145 1.4961,1.8413 2.7677,1.5672 0.0092,-0.002 0.02251,-0.003 0.03207,-0.005 0.01436,-0.004 0.02699,-0.0103 0.04124,-0.0138 0.17726,-0.0389 0.3994,-0.0822 0.55446,-0.12372 0.73366,-0.19644 1.265,-0.48506 1.9246,-0.73776 1.419,-0.50893 2.5942,-0.93409 3.7392,-1.0998 0.4782,-0.0375 0.98203,0.29505 1.2326,0.43532 l 0.9348,-0.16038 c 2.1512,6.6694 6.6593,12.06 12.368,15.442 l -0.3895,0.9348 c 0.14039,0.36298 0.29523,0.8541 0.19066,1.2126 -0.41625,1.0794 -1.1292,2.2187 -1.9411,3.4889 -0.3931,0.58682 -0.79542,1.0422 -1.1502,1.7138 -0.08488,0.1607 -0.193,0.40755 -0.27494,0.57738 -0.55117,1.1793 -0.14687,2.5375 0.91189,3.0472 1.0654,0.51291 2.3879,-0.0281 2.9602,-1.2097 10e-4,-10e-4 0.0038,-0.003 0.0046,-0.005 7e-4,-10e-4 -7e-4,-0.004 0,-0.005 0.08152,-0.16754 0.19701,-0.38776 0.26578,-0.5453 0.30385,-0.69608 0.40495,-1.2926 0.61862,-1.9658 0.56742,-1.4253 0.87918,-2.9208 1.6603,-3.8527 0.21389,-0.25518 0.56261,-0.35332 0.92415,-0.45012 l 0.48573,-0.87981 c 4.9765,1.9102 10.547,2.4228 16.112,1.1593 1.2694,-0.28822 2.4949,-0.66124 3.6796,-1.1089 0.13651,0.24214 0.39021,0.70762 0.45823,0.82482 0.3674,0.11953 0.76844,0.18126 1.0952,0.66444 0.5844,0.99843 0.98405,2.1796 1.4709,3.6063 0.21371,0.67321 0.31932,1.2698 0.6232,1.9658 0.06926,0.15865 0.18417,0.38197 0.26578,0.54988 0.57112,1.1855 1.8978,1.7283 2.9648,1.2143 1.0586,-0.50998 1.4634,-1.8681 0.91188,-3.0472 -0.08195,-0.16983 -0.19463,-0.41669 -0.27952,-0.57738 -0.35478,-0.67155 -0.75704,-1.1224 -1.1502,-1.7092 -0.81194,-1.2701 -1.4854,-2.3253 -1.9017,-3.4047 -0.17407,-0.5567 0.0294,-0.90294 0.16496,-1.2647 -0.0812,-0.0931 -0.25497,-0.61881 -0.35742,-0.86606 5.9325,-3.5028 10.308,-9.0945 12.363,-15.552 0.27749,0.0436 0.7598,0.12894 0.91646,0.16038 0.32254,-0.21272 0.61909,-0.49028 1.2006,-0.44449 1.145,0.16561 2.3202,0.5909 3.7392,1.0998 0.65958,0.25266 1.1909,0.54593 1.9246,0.74233 0.15506,0.0415 0.3772,0.0802 0.55446,0.11915 0.0143,0.004 0.0268,0.0104 0.0413,0.0137 0.01,0.002 0.0229,0.003 0.0321,0.005 1.2717,0.27376 2.5066,-0.42212 2.7677,-1.5672 0.26111,-1.1448 -0.55052,-2.3069 -1.8146,-2.6119 -0.18387,-0.0418 -0.44464,-0.11281 -0.6232,-0.14663 -0.74625,-0.14133 -1.3536,-0.10647 -2.0575,-0.16497 -1.4993,-0.1571 -2.7411,-0.28486 -3.8446,-0.63236 -0.44992,-0.17453 -0.76998,-0.70989 -0.92564,-0.93021 l -0.86606,-0.25203 c 0.44904,-3.2486 0.32796,-6.6296 -0.44907,-10.012 -0.78426,-3.4144 -2.1702,-6.5371 -4.0187,-9.2884 0.22216,-0.20196 0.6417,-0.57348 0.76067,-0.68277 0.03475,-0.38479 0.005,-0.78824 0.40324,-1.2143 0.84335,-0.79193 1.9067,-1.4486 3.1893,-2.2408 0.60878,-0.35816 1.1715,-0.58903 1.7825,-1.0402 0.13817,-0.10203 0.32684,-0.26359 0.47198,-0.38034 1.0287,-0.82061 1.2655,-2.2359 0.52696,-3.1618 -0.73858,-0.92586 -2.1698,-1.0131 -3.1985,-0.19246 -0.14642,0.11597 -0.34511,0.26725 -0.47656,0.38033 -0.57576,0.49533 -0.93134,0.98457 -1.4159,1.4984 -1.0576,1.0742 -1.9318,1.9704 -2.8915,2.6165 -0.41586,0.2421 -1.025,0.15833 -1.3014,0.14205 l -0.81566,0.58196 c -4.6511,-4.8772 -10.984,-7.9953 -17.802,-8.6011 -0.01905,-0.28575 -0.04405,-0.80227 -0.05041,-0.95771 -0.27915,-0.26712 -0.61636,-0.49517 -0.7011,-1.0723 -0.09328,-1.1531 0.06247,-2.3938 0.24286,-3.8904 0.09958,-0.69927 0.26502,-1.2802 0.29327,-2.0392 0.0065,-0.17253 -0.004,-0.42289 -0.0045,-0.60944 -1.4e-4,-1.3159 -0.96017,-2.3829 -2.1445,-2.3828 z m -2.6853,16.634 -0.63694,11.25 -0.04585,0.0229 c -0.0427,1.0064 -0.871,1.81 -1.8879,1.81 -0.41656,0 -0.80106,-0.13377 -1.1135,-0.36201 l -0.0183,0.009 -9.2242,-6.539 c 2.835,-2.7877 6.4612,-4.8478 10.64,-5.7967 0.76338,-0.17333 1.5264,-0.30193 2.2866,-0.39408 z m 5.3751,0 c 4.8791,0.60008 9.3912,2.8094 12.849,6.1953 l -9.1647,6.4978 -0.0321,-0.0138 c -0.81345,0.59412 -1.9595,0.44671 -2.5936,-0.34826 -0.25974,-0.32566 -0.39602,-0.70859 -0.41241,-1.0952 l -0.0091,-0.005 z m -21.647,10.393 8.4223,7.5334 -0.0092,0.0458 c 0.76021,0.66088 0.87231,1.8077 0.23828,2.6028 -0.25972,0.32568 -0.60737,0.54412 -0.98062,0.64611 l -0.0092,0.0367 -10.796,3.116 c -0.54948,-5.0245 0.63472,-9.9086 3.1343,-13.981 z m 37.855,0.005 c 1.2514,2.0283 2.199,4.2938 2.7632,6.7498 0.55736,2.4266 0.69724,4.8488 0.4674,7.1897 l -10.851,-3.1252 -0.0091,-0.0458 c -0.97168,-0.26556 -1.5688,-1.254 -1.3426,-2.2454 0.09267,-0.40612 0.30826,-0.74969 0.60028,-1.0035 l -0.0045,-0.0229 8.3765,-7.4967 z m -20.625,8.1108 h 3.4505 l 2.1445,2.6807 -0.76984,3.3451 -3.0977,1.4893 -3.1068,-1.4938 -0.76983,-3.3451 z m 11.062,9.1733 c 0.14663,-0.007 0.29262,0.006 0.43532,0.0321 l 0.0183,-0.0229 11.167,1.8879 c -1.6343,4.5916 -4.7616,8.5694 -8.9401,11.231 l -4.3349,-10.471 0.01375,-0.0183 c -0.3982,-0.92527 2.95e-4,-2.0103 0.91647,-2.4516 0.23456,-0.11296 0.47962,-0.17552 0.72401,-0.18787 z m -18.756,0.0458 c 0.8522,0.012 1.6166,0.60343 1.8146,1.4709 0.0927,0.40612 0.0476,0.80851 -0.1054,1.1639 l 0.0321,0.0412 -4.2891,10.365 c -4.0101,-2.5732 -7.2041,-6.4261 -8.9127,-11.153 l 11.071,-1.8788 0.01831,0.0229 c 0.12384,-0.0228 0.24943,-0.0337 0.37117,-0.0321 z m 9.3526,4.5411 c 0.29686,-0.0109 0.59807,0.05 0.88439,0.18787 0.37531,0.18073 0.66524,0.46531 0.84774,0.80649 h 0.04125 l 5.4576,9.8612 c -0.70828,0.23745 -1.4364,0.44037 -2.1812,0.60946 -4.1739,0.94769 -8.3345,0.66054 -12.102,-0.6232 l 5.4438,-9.8429 h 0.0092 c 0.32666,-0.61065 0.94616,-0.97496 1.5992,-0.99895 z"
       style="color:#000000;text-indent:0;text-decoration:none;text-decoration-line:none;text-transform:none;fill:#ffffff;stroke:#ffffff;stroke-width:0.036659"
       id="path1477"
       inkscape:connector-curvature="0"
       inkscape:label="path11" />
  </g>
</svg>
