<svg version="1.1" viewBox="0 0 100 99.999" xmlns="http://www.w3.org/2000/svg">
<g>
<path d="m49.653 0.0072027a6.648 6.7954 0 0 0 -2.5477 0.66444l-34.765 17.12a6.648 6.7954 0 0 0 -3.597 4.6098l-8.5767 38.455a6.648 6.7954 0 0 0 0.90258 5.2101 6.648 6.7954 0 0 0 0.37793 0.54071l24.063 30.835a6.648 6.7954 0 0 0 5.1977 2.557l38.589-9e-3a6.648 6.7954 0 0 0 5.1977 -2.5524l24.054-30.839a6.648 6.7954 0 0 0 1.285 -5.7508l-8.5901-38.455a6.648 6.7954 0 0 0 -3.597 -4.6098l-34.77-17.11a6.648 6.7954 0 0 0 -3.2235 -0.66444z" fill="#326ce5" stroke-width="0"/>
</g>
<g>
<path d="m49.998 12.518c-1.1751 1.22e-4 -2.1279 1.0836-2.1277 2.4201 0 0.02052 4e-3 0.04012 0.0045 0.06053-0.0015 0.1816-0.01027 0.40038-0.0045 0.55848 0.02803 0.77085 0.19217 1.3609 0.29097 2.071 0.17898 1.52 0.32897 2.7801 0.23641 3.9513-0.09001 0.44163-0.40778 0.84553-0.69106 1.1262l-0.05 0.9215c-1.2769 0.10829-2.5623 0.3066-3.8463 0.60502-5.5247 1.2841-10.282 4.1972-13.903 8.1305-0.23499-0.16411-0.6461-0.46602-0.76835-0.55848-0.37989 0.05251-0.76382 0.17251-1.2639-0.12566-0.95218-0.65613-1.8194-1.5619-2.8688-2.6528-0.48082-0.52188-0.82902-1.0188-1.4003-1.5218-0.12974-0.11424-0.32772-0.26875-0.47282-0.38628-0.44662-0.36451-0.97339-0.55461-1.4821-0.57245-0.65408-0.02295-1.2838 0.23886-1.6958 0.76792-0.73255 0.94054-0.49801 2.3781 0.52284 3.2113 0.01036 0.0081 0.02138 0.01493 0.03182 0.02326 0.14028 0.1164 0.31206 0.26556 0.441 0.36301 0.60622 0.45819 1.1599 0.69274 1.764 1.0565 1.2725 0.80448 2.3275 1.4716 3.1643 2.2759 0.32676 0.35656 0.38387 0.98486 0.42736 1.2566l0.68196 0.62364c-3.6507 5.6241-5.3403 12.571-4.3418 19.65l-0.8911 0.26529c-0.23485 0.31045-0.56672 0.79896-0.91384 0.94476-1.0947 0.353-2.3269 0.48261-3.8144 0.64225-0.69837 0.05942-1.3009 0.02397-2.0414 0.16755-0.16295 0.03169-0.39001 0.09212-0.5683 0.13496-0.0061 1e-3 -0.01198 3e-3 -0.01819 0.0051-0.0097 3e-3 -0.02249 0.0071-0.03182 0.0091-1.2541 0.31019-2.0597 1.4902-1.8004 2.6528 0.25942 1.1629 1.4844 1.8701 2.746 1.5917 0.0091-2e-3 0.02233-3e-3 0.03182-0.0051 0.01424-0.0041 0.02678-0.01046 0.04092-0.01402 0.17587-0.03951 0.39627-0.08349 0.55011-0.12566 0.7279-0.19951 1.2551-0.49265 1.9095-0.7493 1.4079-0.51689 2.5739-0.9487 3.7099-1.117 0.47445-0.03809 0.97433 0.29967 1.2229 0.44213l0.92747-0.16289c2.1343 6.7737 6.6071 12.249 12.271 15.684l-0.38644 0.94942c0.13929 0.36866 0.29292 0.86746 0.18917 1.2316-0.41298 1.0963-1.1203 2.2534-1.9259 3.5435-0.39002 0.596-0.78918 1.0585-1.1412 1.7406-0.08422 0.16321-0.19149 0.41393-0.27278 0.58641-0.54685 1.1977-0.14572 2.5772 0.90474 3.0949 1.057 0.52093 2.3692-0.02854 2.937-1.2286 9.91e-4 -1e-3 0.0038-3e-3 0.0046-0.0051 6.94e-4 -1e-3 -6.94e-4 -0.0041 0-0.0051 0.08088-0.17016 0.19546-0.39383 0.2637-0.55383 0.30147-0.70697 0.40177-1.3128 0.61377-1.9966 0.56297-1.4476 0.87228-2.9665 1.6473-3.913 0.21221-0.25917 0.5582-0.35885 0.9169-0.45716l0.48192-0.89357c4.9375 1.9401 10.464 2.4607 15.986 1.1774 1.2594-0.29273 2.4753-0.67158 3.6507-1.1262 0.13544 0.24593 0.38715 0.71869 0.45464 0.83772 0.36452 0.1214 0.76241 0.1841 1.0866 0.67484 0.57982 1.014 0.97633 2.2137 1.4594 3.6627 0.21203 0.68374 0.31682 1.2897 0.61831 1.9966 0.06871 0.16113 0.18272 0.38794 0.26369 0.55848 0.56664 1.204 1.8829 1.7553 2.9415 1.2333 1.0503-0.51796 1.4519-1.8973 0.90473-3.0949-0.08131-0.17249-0.1931-0.42321-0.27733-0.58641-0.352-0.68206-0.7511-1.14-1.1412-1.7359-0.80557-1.29-1.4738-2.3617-1.8868-3.458-0.1727-0.56541 0.02917-0.91707 0.16367-1.2845-0.08056-0.09456-0.25297-0.62849-0.35462-0.87961 5.886-3.5576 10.227-9.2368 12.266-15.795 0.27531 0.04428 0.75384 0.13096 0.90927 0.16289 0.32001-0.21605 0.61423-0.49795 1.1912-0.45144 1.136 0.1682 2.302 0.60014 3.7099 1.117 0.6544 0.25661 1.1816 0.55447 1.9095 0.75394 0.15384 0.04215 0.37424 0.08145 0.55011 0.12101 0.01419 0.0041 0.02659 0.01056 0.04097 0.01391 0.0099 2e-3 0.02272 3e-3 0.03185 0.0051 1.2617 0.27804 2.4869-0.42872 2.746-1.5917 0.25906-1.1627-0.5462-2.343-1.8004-2.6528-0.18243-0.04245-0.44115-0.11458-0.61831-0.14892-0.7404-0.14354-1.343-0.10814-2.0414-0.16755-1.4875-0.15956-2.7196-0.28932-3.8144-0.64225-0.44639-0.17726-0.76394-0.721-0.91838-0.94476l-0.85927-0.25597c0.44552-3.2994 0.32539-6.7333-0.44555-10.169-0.77811-3.4678-2.1532-6.6394-3.9872-9.4337 0.22042-0.20512 0.63667-0.58245 0.7547-0.69345 0.03448-0.39081 5e-3 -0.80057 0.40008-1.2333 0.83673-0.80432 1.8917-1.4713 3.1643-2.2759 0.604-0.36376 1.1623-0.59824 1.7685-1.0565 0.13709-0.10363 0.32428-0.26771 0.46828-0.38629 1.0206-0.83345 1.2556-2.2709 0.52283-3.2113-0.73279-0.94034-2.1528-1.0289-3.1734-0.19547-0.14527 0.11778-0.3424 0.27143-0.47282 0.38628-0.57124 0.50308-0.92403 0.99997-1.4048 1.5218-1.0493 1.091-1.9166 2.0012-2.8688 2.6574-0.4126 0.24589-1.017 0.16081-1.2912 0.14427l-0.80926 0.59106c-4.6146-4.9535-10.898-8.1204-17.662-8.7357-0.0189-0.29022-0.0437-0.81482-0.05001-0.97269-0.27696-0.2713-0.61152-0.50292-0.6956-1.0891-0.09255-1.1711 0.06198-2.4312 0.24096-3.9513 0.0988-0.71021 0.26294-1.3002 0.29097-2.0711 0.0064-0.17523-4e-3 -0.42951-0.0045-0.61897-1.39e-4 -1.3365-0.95264-2.4202-2.1277-2.4201zm-2.6642 16.894-0.63194 11.426-0.04549 0.02326c-0.04236 1.0221-0.86417 1.8383-1.8731 1.8383-0.41329 0-0.79478-0.13586-1.1048-0.36767l-0.01816 0.0091-9.1518-6.6413c2.8128-2.8313 6.4105-4.9236 10.557-5.8874 0.75739-0.17604 1.5144-0.30665 2.2687-0.40024zm5.3329 0c4.8408 0.60947 9.3175 2.8534 12.748 6.2922l-9.0928 6.5995-0.03185-0.01402c-0.80707 0.60341-1.9441 0.4537-2.5733-0.35371-0.2577-0.33076-0.39291-0.71968-0.40918-1.1123l-9e-3 -0.0051zm-21.477 10.556 8.3562 7.6513-0.0091 0.04652c0.75425 0.67122 0.86547 1.836 0.23641 2.6435-0.25768 0.33078-0.60261 0.55263-0.97293 0.65622l-0.0091 0.03728-10.711 3.1647c-0.54517-5.1031 0.62974-10.064 3.1097-14.2zm37.558 0.0051c1.2416 2.06 2.1818 4.361 2.7415 6.8554 0.55299 2.4646 0.69177 4.9247 0.46373 7.3022l-10.766-3.1741-9e-3 -0.04652c-0.96406-0.26971-1.5565-1.2736-1.3321-2.2805 0.09195-0.41247 0.30584-0.76142 0.59557-1.0192l-0.0045-0.02326 8.3108-7.614zm-20.463 8.2377h3.4234l2.1277 2.7226-0.7638 3.3974-3.0734 1.5126-3.0824-1.5172-0.76379-3.3974zm10.975 9.3168c0.14548-0.0071 0.29033 0.0061 0.43191 0.0326l0.01816-0.02326 11.079 1.9174c-1.6215 4.6634-4.7243 8.7035-8.87 11.407l-4.3009-10.635 0.01364-0.01859c-0.39508-0.93974 2.92e-4 -2.0417 0.90928-2.49 0.23272-0.11473 0.47586-0.17827 0.71833-0.19081zm-18.609 0.04652c0.84551 0.01219 1.6039 0.61287 1.8004 1.4939 0.09198 0.41247 0.04723 0.82116-0.10457 1.1821l0.03185 0.04185-4.2555 10.527c-3.9786-2.6135-7.1476-6.5267-8.8428-11.328l10.984-1.9082 0.01817 0.02326c0.12287-0.02316 0.24747-0.03423 0.36826-0.0326zm9.2792 4.6121c0.29453-0.01107 0.59338 0.05078 0.87745 0.19081 0.37237 0.18356 0.66002 0.47259 0.84109 0.81911h0.04092l5.4148 10.015c-0.70272 0.24116-1.4251 0.44726-2.1641 0.61899-4.1412 0.96252-8.2691 0.67087-12.007-0.63295l5.4011-9.9969h0.0091c0.3241-0.6202 0.93874-0.99021 1.5867-1.0146z" color="#000000" fill="#fff" stroke="#fff" stroke-width=".036799" style="text-decoration-line:none;text-indent:0;text-transform:none"/>
</g>
</svg>
