<?xml version="1.0" encoding="UTF-8" standalone="no"?>
<svg
   xmlns:dc="http://purl.org/dc/elements/1.1/"
   xmlns:cc="http://creativecommons.org/ns#"
   xmlns:rdf="http://www.w3.org/1999/02/22-rdf-syntax-ns#"
   xmlns:svg="http://www.w3.org/2000/svg"
   xmlns="http://www.w3.org/2000/svg"
   xmlns:sodipodi="http://sodipodi.sourceforge.net/DTD/sodipodi-0.dtd"
   xmlns:inkscape="http://www.inkscape.org/namespaces/inkscape"
   width="100"
   height="99.999252"
   version="1.1"
   id="svg1479"
   sodipodi:docname="k8s-smaller-2.svg"
   inkscape:version="0.92.2 5c3e80d, 2017-08-06">
  <metadata
     id="metadata1485">
    <rdf:RDF>
      <cc:Work
         rdf:about="">
        <dc:format>image/svg+xml</dc:format>
        <dc:type
           rdf:resource="http://purl.org/dc/dcmitype/StillImage" />
        <dc:title></dc:title>
      </cc:Work>
    </rdf:RDF>
  </metadata>
  <defs
     id="defs1483" />
  <sodipodi:namedview
     pagecolor="#ffffff"
     bordercolor="#666666"
     borderopacity="1"
     objecttolerance="10"
     gridtolerance="10"
     guidetolerance="10"
     inkscape:pageopacity="0"
     inkscape:pageshadow="2"
     inkscape:window-width="988"
     inkscape:window-height="615"
     id="namedview1481"
     showgrid="false"
     inkscape:zoom="2.36"
     inkscape:cx="50"
     inkscape:cy="49.999626"
     inkscape:window-x="543"
     inkscape:window-y="61"
     inkscape:window-maximized="0"
     inkscape:current-layer="layer1"
     inkscape:pagecheckerboard="true"
     showborder="false" />
  <g
     inkscape:groupmode="layer"
     id="layer1"
     inkscape:label="base">
    <path
       d="m 49.653076,0.00720272 a 6.6479686,6.7954 0 0 0 -2.5477,0.66444 L 12.340716,17.791643 a 6.6479686,6.7954 0 0 0 -3.5969761,4.6098 l -8.57671889,38.455 a 6.6479686,6.7954 0 0 0 0.90257709,5.2101 6.6479686,6.7954 0 0 0 0.3779295,0.54071 l 24.0632884,30.835 a 6.6479686,6.7954 0 0 0 5.19767,2.557 l 38.588588,-0.009 a 6.6479686,6.7954 0 0 0 5.19767,-2.5524 l 24.053582,-30.839 a 6.6479686,6.7954 0 0 0 1.28496,-5.7508 l -8.590105,-38.455 a 6.6479686,6.7954 0 0 0 -3.596976,-4.6098 L 52.876694,0.67325272 a 6.6479686,6.7954 0 0 0 -3.223511,-0.66444 z"
       id="path1475"
       inkscape:connector-curvature="0"
       style="fill:#326ce5;stroke-width:0"
       inkscape:label="path12" />
  </g>
  <g
     inkscape:groupmode="layer"
     id="layer2"
     inkscape:label="wheel">
    <path
       d="m 49.997762,12.518205 c -1.17511,1.22e-4 -2.127878,1.08359 -2.127679,2.420076 0,0.02052 0.004,0.04012 0.0045,0.06053 -0.0015,0.181597 -0.01027,0.400377 -0.0045,0.558483 0.02803,0.770853 0.19217,1.360861 0.29097,2.070999 0.178984,1.520012 0.328969,2.780121 0.23641,3.95126 -0.09001,0.441632 -0.407776,0.845534 -0.691056,1.126247 l -0.05,0.921504 c -1.276905,0.108288 -2.562343,0.306603 -3.846292,0.605019 -5.524725,1.284078 -10.281717,4.19725 -13.903088,8.130532 -0.234992,-0.164107 -0.646101,-0.466017 -0.768346,-0.558482 -0.379886,0.05251 -0.763822,0.172507 -1.263908,-0.125655 -0.952181,-0.656126 -1.819416,-1.561857 -2.86882,-2.65276 -0.480818,-0.521878 -0.829016,-1.018792 -1.400329,-1.52184 -0.129735,-0.11424 -0.32772,-0.26875 -0.472823,-0.38628 -0.446618,-0.364514 -0.973394,-0.554612 -1.482083,-0.572447 -0.654079,-0.02295 -1.28375,0.238858 -1.695793,0.767918 -0.732549,0.940536 -0.498013,2.37813 0.522836,3.211262 0.01036,0.0081 0.02138,0.01493 0.03182,0.02326 0.14028,0.116403 0.312063,0.265561 0.441003,0.363012 0.606218,0.458187 1.159931,0.692739 1.763956,1.056472 1.27254,0.804481 2.327499,1.471567 3.164284,2.275855 0.326757,0.356562 0.383874,0.98486 0.427361,1.256554 l 0.681959,0.623636 c -3.65074,5.624127 -5.340282,12.570622 -4.341775,19.649659 l -0.891096,0.265287 c -0.234853,0.310451 -0.56672,0.798965 -0.913835,0.944762 -1.094746,0.352997 -2.326904,0.482613 -3.814445,0.642252 -0.698369,0.05942 -1.300915,0.02397 -2.041362,0.16755 -0.162952,0.03169 -0.390007,0.09212 -0.568297,0.13496 -0.0061,10e-4 -0.01198,0.003 -0.01819,0.0051 -0.0097,0.003 -0.02249,0.0071 -0.03182,0.0091 -1.254085,0.310188 -2.059717,1.490152 -1.800367,2.65276 0.259419,1.162912 1.484365,1.870105 2.745991,1.591718 0.0091,-0.002 0.02233,-0.003 0.03182,-0.0051 0.01424,-0.0041 0.02678,-0.01046 0.04092,-0.01402 0.175871,-0.03951 0.396268,-0.08349 0.550112,-0.125656 0.727905,-0.199513 1.255077,-0.492648 1.909503,-0.749301 1.407871,-0.516891 2.573853,-0.948702 3.709872,-1.117005 0.474449,-0.03809 0.974327,0.299666 1.222931,0.44213 l 0.927469,-0.162889 c 2.134326,6.773734 6.607067,12.248664 12.270989,15.683571 l -0.386445,0.949423 c 0.139289,0.368659 0.292915,0.867462 0.189166,1.231571 -0.412985,1.096285 -1.120344,2.253409 -1.925876,3.543479 -0.390016,0.595999 -0.789181,1.058504 -1.141178,1.74061 -0.08422,0.163214 -0.191487,0.413926 -0.272783,0.586412 -0.546847,1.197749 -0.145718,2.577196 0.904737,3.09487 1.057043,0.520934 2.369171,-0.02854 2.936982,-1.228624 9.91e-4,-10e-4 0.0038,-0.003 0.0046,-0.0051 6.94e-4,-10e-4 -6.94e-4,-0.0041 0,-0.0051 0.08088,-0.170161 0.195465,-0.393826 0.263696,-0.55383 0.301467,-0.706969 0.401773,-1.312821 0.613767,-1.996552 0.56297,-1.447597 0.872284,-2.966493 1.647277,-3.912971 0.212213,-0.259173 0.558197,-0.358847 0.916902,-0.457162 l 0.48192,-0.893574 c 4.937466,1.940084 10.464273,2.460702 15.985623,1.177437 1.259444,-0.29273 2.475332,-0.671585 3.65074,-1.126248 0.135438,0.245928 0.387148,0.71869 0.454635,0.837723 0.364518,0.121401 0.762413,0.184096 1.08661,0.674835 0.579816,1.014049 0.976331,2.213697 1.459363,3.662716 0.212033,0.683741 0.316815,1.289664 0.618312,1.996552 0.06871,0.161132 0.182725,0.387945 0.263694,0.558482 0.566642,1.204046 1.882915,1.755338 2.941546,1.233297 1.050297,-0.517959 1.451921,-1.897324 0.904727,-3.09487 -0.08131,-0.172487 -0.193103,-0.423208 -0.277327,-0.586413 -0.351997,-0.682055 -0.751102,-1.139958 -1.141178,-1.735938 -0.805572,-1.289969 -1.47375,-2.361677 -1.886784,-3.457962 -0.172705,-0.565409 0.02917,-0.917066 0.163666,-1.284485 -0.08056,-0.09456 -0.25297,-0.62849 -0.354616,-0.879608 5.885967,-3.557597 10.227148,-9.236772 12.266029,-15.795292 0.275313,0.04428 0.75384,0.130957 0.909272,0.162889 0.32001,-0.216048 0.614233,-0.497949 1.191182,-0.451443 1.136019,0.168201 2.302001,0.600143 3.709872,1.117005 0.654405,0.256612 1.181558,0.554471 1.909503,0.753943 0.153844,0.04215 0.374241,0.08145 0.550112,0.121014 0.01419,0.0041 0.02659,0.01056 0.04097,0.01391 0.0099,0.002 0.02272,0.003 0.03185,0.0051 1.261726,0.278043 2.48694,-0.428723 2.745993,-1.591717 0.259061,-1.162708 -0.546203,-2.342988 -1.800368,-2.652759 -0.182428,-0.04245 -0.441152,-0.114576 -0.618312,-0.148924 -0.740397,-0.143542 -1.342983,-0.108136 -2.041362,-0.167551 -1.48754,-0.159558 -2.719599,-0.289316 -3.814444,-0.642252 -0.446391,-0.177261 -0.76394,-0.720996 -0.918379,-0.944762 l -0.859267,-0.255974 c 0.445517,-3.29942 0.325388,-6.733311 -0.445548,-10.168624 -0.778109,-3.467814 -2.153178,-6.639365 -3.987179,-9.433706 0.220418,-0.205119 0.636667,-0.582451 0.754704,-0.69345 0.03448,-0.39081 0.005,-0.800572 0.400077,-1.233297 0.836734,-0.804318 1.891744,-1.471262 3.164284,-2.275854 0.604005,-0.363763 1.162311,-0.598245 1.768519,-1.056473 0.137086,-0.103626 0.324277,-0.267713 0.468278,-0.38629 1.020631,-0.833447 1.255573,-2.270877 0.522826,-3.211262 -0.732786,-0.940344 -2.15278,-1.028949 -3.173412,-0.195471 -0.145271,0.117784 -0.342403,0.27143 -0.472822,0.38628 -0.571243,0.503079 -0.924034,0.999972 -1.404794,1.521841 -1.049305,1.091004 -1.916648,2.001224 -2.86882,2.657431 -0.412598,0.245888 -1.01696,0.160807 -1.291192,0.144272 l -0.809262,0.591064 c -4.614611,-4.953498 -10.897838,-8.120377 -17.66236,-8.735654 -0.0189,-0.29022 -0.0437,-0.81482 -0.05001,-0.972692 -0.27696,-0.271299 -0.611524,-0.502917 -0.6956,-1.089075 -0.09255,-1.171138 0.06198,-2.431247 0.240955,-3.95126 0.0988,-0.710209 0.262941,-1.300227 0.29097,-2.071101 0.0064,-0.175229 -0.004,-0.429506 -0.0045,-0.618974 -1.39e-4,-1.336486 -0.952638,-2.420178 -2.12768,-2.420076 z m -2.664237,16.894218 -0.631944,11.425992 -0.04549,0.02326 c -0.04236,1.022143 -0.864169,1.838315 -1.873093,1.838315 -0.413293,0 -0.794777,-0.135864 -1.104766,-0.367673 l -0.01816,0.0091 -9.151849,-6.641295 c 2.812763,-2.831309 6.410521,-4.923637 10.556544,-5.887382 0.757393,-0.176041 1.514428,-0.306653 2.268665,-0.400245 z m 5.332939,0 c 4.84083,0.609467 9.317538,2.85335 12.748218,6.292217 l -9.092816,6.599451 -0.03185,-0.01402 c -0.80707,0.603414 -1.944131,0.453697 -2.573257,-0.353708 -0.257703,-0.330755 -0.392914,-0.719675 -0.409176,-1.112333 l -0.009,-0.0051 z m -21.47721,10.555585 8.35624,7.651251 -0.0091,0.04652 c 0.754247,0.671219 0.865467,1.835979 0.236411,2.643518 -0.257683,0.330775 -0.602607,0.552632 -0.972928,0.656217 l -0.0091,0.03728 -10.711321,3.164746 c -0.54517,-5.103103 0.629742,-10.063608 3.109716,-14.199716 z m 37.558081,0.0051 c 1.241584,2.06003 2.181752,4.360972 2.741526,6.855392 0.552988,2.464562 0.691772,4.924654 0.463734,7.302174 l -10.765888,-3.17409 -0.009,-0.04652 c -0.964059,-0.269714 -1.556495,-1.273617 -1.332068,-2.280526 0.09195,-0.412474 0.305841,-0.761418 0.595571,-1.019199 l -0.0045,-0.02326 8.310798,-7.613977 z M 48.28411,48.210792 h 3.423435 l 2.127678,2.722636 -0.763801,3.39743 -3.073402,1.512598 -3.082431,-1.517169 -0.763791,-3.39743 z m 10.975233,9.316805 c 0.14548,-0.0071 0.290326,0.0061 0.431906,0.0326 l 0.01816,-0.02326 11.079411,1.917433 c -1.621481,4.66343 -4.724253,8.703457 -8.869978,11.406695 l -4.300899,-10.634806 0.01364,-0.01859 c -0.395076,-0.939745 2.92e-4,-2.041749 0.909282,-2.489952 0.23272,-0.114728 0.475858,-0.178266 0.718331,-0.190809 z m -18.608884,0.04652 c 0.845514,0.01219 1.603919,0.612871 1.800366,1.493911 0.09198,0.412473 0.04723,0.821158 -0.104573,1.182108 l 0.03185,0.04185 -4.255459,10.527147 C 34.143999,68.205646 30.975051,64.292472 29.279854,59.491626 l 10.984162,-1.908192 0.01817,0.02326 c 0.122868,-0.02316 0.247474,-0.03423 0.36826,-0.0326 z m 9.279241,4.612141 c 0.294531,-0.01107 0.593379,0.05078 0.877453,0.190809 0.372367,0.183557 0.660022,0.472589 0.841091,0.819106 h 0.04092 l 5.414793,10.015466 c -0.702724,0.241165 -1.425134,0.447259 -2.164092,0.618994 -4.141161,0.962516 -8.269126,0.670873 -12.007076,-0.632949 l 5.401101,-9.99688 h 0.0091 c 0.324097,-0.620203 0.938739,-0.990212 1.586656,-1.014576 z"
       style="color:#000000;text-indent:0;text-decoration:none;text-decoration-line:none;text-transform:none;fill:#ffffff;stroke:#ffffff;stroke-width:0.03679946"
       id="path1477"
       inkscape:connector-curvature="0"
       inkscape:label="path11" />
  </g>
</svg>
