<svg width="320" height="311.09" version="1.1" xmlns="http://www.w3.org/2000/svg">
 <g transform="translate(-6.3259 -565.63)">
  <path d="m165.29 575.66a19.944 19.781 0 0 0 -7.643 1.9341l-104.29 49.833a19.944 19.781 0 0 0 -10.791 13.419l-25.73 111.94a19.944 19.781 0 0 0 2.7077 15.166 19.944 19.781 0 0 0 1.1338 1.574l72.189 89.756a19.944 19.781 0 0 0 15.593 7.443l115.77-0.0267a19.944 19.781 0 0 0 15.593 -7.4296l72.162-89.769a19.944 19.781 0 0 0 3.8549 -16.74l-25.77-111.94a19.944 19.781 0 0 0 -10.791 -13.419l-104.31-49.806a19.944 19.781 0 0 0 -9.6705 -1.9341z" fill="#326ce5" stroke-width="0"/>
  <path d="m166.32 613.75c-3.4475 3.5e-4 -6.2429 3.1056-6.2425 6.9361 1e-5 0.0588 0.012 0.11496 0.0133 0.1734-5e-3 0.52046-0.0302 1.1475-0.0133 1.6006 0.0822 2.2093 0.56381 3.9002 0.85367 5.9357 0.52513 4.3566 0.96515 7.9679 0.69361 11.324-0.26408 1.2657-1.1964 2.4233-2.0275 3.2279l-0.14672 2.641c-3.7463 0.31038-7.5176 0.87874-11.284 1.734-16.209 3.6803-30.165 12.03-40.79 23.303-0.68943-0.47034-1.8956-1.3356-2.2542-1.6006-1.1145 0.15051-2.241 0.4944-3.7081-0.36015-2.7936-1.8805-5.338-4.4762-8.4167-7.603-1.4107-1.4957-2.4322-2.92-4.1083-4.3617-0.38062-0.32741-0.96148-0.77025-1.3872-1.1071-1.3103-1.0447-2.8558-1.5896-4.3484-1.6406-1.919-0.0657-3.7664 0.68458-4.9753 2.2009-2.1492 2.6956-1.4611 6.8157 1.5339 9.2036 0.03039 0.0242 0.06275 0.043 0.09337 0.0667 0.41156 0.33362 0.91555 0.7611 1.2938 1.0404 1.7786 1.3132 3.4032 1.9854 5.1754 3.0279 3.7335 2.3057 6.8287 4.2175 9.2837 6.5226 0.95868 1.0219 1.1262 2.8226 1.2538 3.6014l2.0008 1.7874c-10.711 16.119-15.668 36.029-12.738 56.316l-2.6144 0.7603c-0.68904 0.88979-1.6627 2.2899-2.6811 2.7077-3.212 1.0117-6.8269 1.3832-11.191 1.8407-2.0489 0.17037-3.8168 0.0687-5.989 0.48019-0.47809 0.0906-1.1442 0.26412-1.6673 0.38682-0.01818 4e-3 -0.03517 9e-3 -0.05335 0.0133-0.02851 7e-3 -0.06597 0.0204-0.09337 0.0267-3.6794 0.88901-6.043 4.2709-5.2821 7.603 0.76112 3.3329 4.3551 5.3597 8.0565 4.5618 0.02672-6e-3 0.06552-7e-3 0.09337-0.0133 0.04179-0.01 0.07858-0.0298 0.12005-0.04 0.51598-0.11327 1.1626-0.23929 1.614-0.36014 2.1356-0.57181 3.6823-1.412 5.6022-2.1475 4.1305-1.4814 7.5515-2.719 10.884-3.2013 1.392-0.10902 2.8586 0.85886 3.5881 1.2672l2.7211-0.46685c6.2618 19.414 19.384 35.105 36.001 44.951l-1.1338 2.7211c0.40866 1.0566 0.85939 2.4862 0.55498 3.5296-1.2116 3.142-3.287 6.4584-5.6503 10.156-1.1443 1.7082-2.3154 3.0338-3.348 4.9886-0.24709 0.46777-0.56179 1.1863-0.80032 1.6807-1.6044 3.4328-0.42753 7.3865 2.6544 8.8702 3.1013 1.493 6.9508-0.0817 8.6168-3.5214 3e-3 -5e-3 0.011-8e-3 0.0133-0.0133 2e-3 -4e-3 -2e-3 -0.01 0-0.0133 0.2373-0.48768 0.57347-1.1287 0.77364-1.5873 0.88446-2.0262 1.1788-3.7626 1.8007-5.7223 1.6517-4.1489 2.5592-8.5022 4.8329-11.215 0.62262-0.7428 1.6377-1.0285 2.6901-1.3102l1.4139-2.561c14.486 5.5603 30.701 7.0524 46.899 3.3747 3.6951-0.83898 7.2624-1.9248 10.711-3.228 0.39737 0.70485 1.1359 2.0598 1.3339 2.401 1.0695 0.34794 2.2368 0.52762 3.1879 1.9341 1.7011 2.9063 2.8644 6.3446 4.2817 10.497 0.62206 1.9596 0.92948 3.6961 1.814 5.7223 0.20161 0.46181 0.5361 1.1118 0.77364 1.6006 1.6624 3.4509 5.5242 5.031 8.6301 3.5347 3.0815-1.4845 4.2597-5.4378 2.6544-8.8702-0.23855-0.49433-0.56654-1.2129-0.81365-1.6807-1.0327-1.9548-2.2036-3.2672-3.348-4.9753-2.3635-3.6972-4.3237-6.7686-5.5355-9.9106-0.5067-1.6205 0.0855-2.6284 0.48019-3.6815-0.23637-0.27094-0.74218-1.8013-1.0404-2.521 17.269-10.196 30.006-26.473 35.988-45.271 0.80774 0.12695 2.2117 0.37534 2.6677 0.46685 0.93885-0.61921 1.8021-1.4271 3.4947-1.2938 3.3329 0.48205 6.7538 1.72 10.884 3.2013 1.92 0.73546 3.4666 1.5892 5.6022 2.1608 0.45137 0.12083 1.098 0.23357 1.614 0.34681 0.0415 0.0101 0.0782 0.0305 0.12005 0.04 0.0279 6e-3 0.0667 7e-3 0.0934 0.0133 3.7017 0.79688 7.2963-1.2287 8.0565-4.5618 0.76008-3.3323-1.6025-6.715-5.2821-7.603-0.53522-0.12171-1.2943-0.3284-1.814-0.42684-2.1722-0.41138-3.9401-0.30993-5.989-0.48019-4.3642-0.4573-7.9791-0.82921-11.191-1.8407-1.3096-0.50805-2.2413-2.0664-2.6944-2.7077l-2.521-0.73362c1.3071-9.4563 0.95464-19.298-1.3072-29.145-2.2829-9.9388-6.3173-19.029-11.698-27.037 0.64668-0.58788 1.8679-1.6693 2.2142-1.9875 0.10123-1.1201 0.0143-2.2945 1.1738-3.5347 2.4549-2.3052 5.5503-4.2167 9.2837-6.5226 1.7721-1.0426 3.4102-1.7146 5.1887-3.0279 0.40219-0.29697 0.95138-0.76727 1.3739-1.1071 2.9944-2.3887 3.6838-6.5086 1.5339-9.2036-2.1499-2.6951-6.3159-2.9489-9.3104-0.56022-0.42622 0.33756-1.0046 0.77792-1.3872 1.1071-1.676 1.4418-2.711 2.866-4.1216 4.3617-3.0786 3.127-5.6232 5.7357-8.4167 7.6164-1.2105 0.70473-2.9836 0.46088-3.7882 0.41349l-2.3743 1.694c-13.539-14.197-31.972-23.273-51.82-25.037-0.0555-0.83179-0.12825-2.3353-0.14673-2.7878-0.81257-0.77754-1.7942-1.4414-2.0408-3.1212-0.27154-3.3566 0.18182-6.9679 0.70695-11.324 0.28986-2.0355 0.77145-3.7264 0.85367-5.9357 0.0187-0.50223-0.0113-1.231-0.0133-1.774-4.1e-4 -3.8305-2.7949-6.9364-6.2425-6.9361zm-7.8164 48.419-1.8541 32.746-0.13339 0.0667c-0.12435 2.9295-2.5354 5.2688-5.4955 5.2688-1.2126 0-2.3318-0.3894-3.2413-1.0538l-0.0533 0.0267-26.851-19.034c8.2523-8.1146 18.808-14.111 30.972-16.873 2.2221-0.50454 4.4432-0.8789 6.656-1.1471zm15.646 0c14.202 1.7467 27.337 8.1777 37.401 18.034l-26.677 18.914-0.0934-0.04c-2.3678 1.7294-5.704 1.3003-7.5497-1.0137-0.75606-0.94798-1.1528-2.0626-1.2005-3.1879l-0.0267-0.0133zm-63.012 30.252 24.516 21.929-0.0267 0.13339c2.2129 1.9237 2.5392 5.262 0.69361 7.5763-0.75601 0.94803-1.768 1.5839-2.8545 1.8808l-0.0267 0.10671-31.426 9.0703c-1.5995-14.626 1.8476-28.843 9.1236-40.696zm110.19 0.0133c3.6427 5.9042 6.4011 12.499 8.0432 19.648 1.6224 7.0634 2.0296 14.114 1.3605 20.928l-31.586-9.0969-0.0267-0.13339c-2.8284-0.77301-4.5667-3.6501-3.9082-6.5359 0.26977-1.1822 0.8973-2.1823 1.7474-2.9212l-0.0133-0.0667 24.383-21.822zm-60.037 23.609h10.044l6.2425 7.8031-2.2409 9.7372-9.0169 4.335-9.0436-4.3484-2.2409-9.7372zm32.199 26.704c0.42682-0.0216 0.85178 0.0169 1.2672 0.0934l0.0533-0.0667 32.506 5.4955c-4.7573 13.366-13.861 24.944-26.024 32.693l-12.618-30.479 0.04-0.0534c-1.1591-2.6933 8.5e-4 -5.8517 2.6677-7.1362 0.68279-0.32883 1.3961-0.51092 2.1075-0.54688zm-54.595 0.13339c2.4807 0.0348 4.7057 1.7565 5.2821 4.2817 0.26984 1.1822 0.13851 2.3535-0.30679 3.388l0.0934 0.12005-12.485 30.172c-11.673-7.4904-20.97-18.706-25.944-32.466l32.226-5.4688 0.0533 0.0667c0.36047-0.0663 0.72605-0.0983 1.0804-0.0934zm27.224 13.219c0.86411-0.0318 1.7409 0.14554 2.5744 0.54688 1.0925 0.52609 1.9364 1.3544 2.4676 2.3476h0.12004l15.886 28.705c-2.0617 0.69115-4.1813 1.2818-6.3492 1.774-12.15 2.7586-24.261 1.9228-35.227-1.814l15.846-28.651h0.0267c0.95085-1.7775 2.7541-2.838 4.6552-2.9078z" color="#000000" fill="#fff" stroke="#fff" stroke-width=".10671" style="text-decoration-line:none;text-indent:0;text-transform:none"/>
 </g>
</svg>
