<svg version="1.1" viewBox="0 0 75 73.267" xmlns="http://www.w3.org/2000/svg">
<g transform="translate(-13.734 -13.654)">
<path d="m51.232 13.673c-1.1751 1.19e-4 -2.1279 1.0585-2.1277 2.3641 0 0.02004 4e-3 0.03919 0.0045 0.05913-0.0015 0.1774-0.01027 0.39112-0.0045 0.54557 0.02803 0.75303 0.19217 1.3294 0.29097 2.0231 0.17899 1.4849 0.32897 2.7158 0.23641 3.8599-0.09001 0.43142-0.40778 0.82598-0.69106 1.1002l-0.05 0.9002c-1.2769 0.10578-2.5624 0.29951-3.8463 0.59103-5.5248 1.2544-10.282 4.1002-13.903 7.9426-0.23499-0.16031-0.64611-0.45524-0.76835-0.54557-0.37989 0.0513-0.76383 0.16852-1.2639-0.12275-0.95219-0.64096-1.8194-1.5257-2.8688-2.5914-0.48082-0.50981-0.82902-0.99524-1.4003-1.4867-0.12974-0.1116-0.32772-0.26254-0.47282-0.37735-0.44662-0.35609-0.9734-0.54179-1.4821-0.55921-0.65408-0.02242-1.2838 0.23334-1.6958 0.75016-0.73255 0.91879-0.49802 2.3231 0.52284 3.137 0.01036 0.0079 0.02138 0.01459 0.03182 0.02272 0.14028 0.11371 0.31206 0.25942 0.44101 0.35462 0.60622 0.44759 1.1599 0.67672 1.764 1.032 1.2725 0.78588 2.3275 1.4375 3.1643 2.2232 0.32676 0.34832 0.38388 0.96209 0.42736 1.2275l0.68196 0.60922c-3.6508 5.4941-5.3403 12.28-4.3418 19.195l-0.8911 0.25915c-0.23486 0.30328-0.56672 0.7805-0.91384 0.92292-1.0948 0.34484-2.3269 0.47146-3.8145 0.6274-0.69837 0.05804-1.3009 0.02341-2.0414 0.16368-0.16295 0.03096-0.39001 0.08999-0.5683 0.13184-0.0062 9.92e-4 -0.01198 3e-3 -0.01819 5e-3 -0.0097 3e-3 -0.02248 0.0069-0.03182 0.0089-1.2541 0.30302-2.0597 1.4557-1.8004 2.5914 0.25942 1.136 1.4844 1.8269 2.746 1.5549 0.0091-2e-3 0.02233-3e-3 0.03182-5e-3 0.01425-4e-3 0.02678-0.01022 0.04092-0.01369 0.17587-0.0386 0.39627-0.08156 0.55011-0.12275 0.72791-0.1949 1.2551-0.48126 1.9095-0.73198 1.4079-0.50494 2.5739-0.92677 3.7099-1.0912 0.47445-0.03721 0.97433 0.29274 1.2229 0.43191l0.92747-0.15909c2.1343 6.6171 6.6071 11.965 12.271 15.321l-0.38645 0.92747c0.13929 0.36014 0.29292 0.84741 0.18916 1.2031-0.41299 1.0709-1.1204 2.2013-1.9259 3.4616-0.39002 0.58222-0.78919 1.034-1.1412 1.7004-0.08422 0.15944-0.19149 0.40436-0.27278 0.57286-0.54685 1.1701-0.14572 2.5176 0.90474 3.0233 1.057 0.50889 2.3692-0.02788 2.937-1.2002 9.92e-4 -9.92e-4 0.0038-3e-3 0.0046-5e-3 6.94e-4 -9.92e-4 -6.95e-4 -4e-3 0-5e-3 0.08088-0.16623 0.19547-0.38472 0.2637-0.54103 0.30147-0.69062 0.40178-1.2825 0.61377-1.9504 0.56297-1.4141 0.87229-2.8979 1.6473-3.8225 0.21221-0.25318 0.5582-0.35055 0.91691-0.44659l0.48192-0.87292c4.9375 1.8952 10.464 2.4038 15.986 1.1502 1.2595-0.28596 2.4753-0.65606 3.6508-1.1002 0.13544 0.24024 0.38715 0.70208 0.45464 0.81836 0.36452 0.11859 0.76242 0.17984 1.0866 0.65923 0.57982 0.9906 0.97634 2.1625 1.4594 3.578 0.21204 0.66793 0.31682 1.2598 0.61832 1.9504 0.06872 0.15741 0.18273 0.37898 0.2637 0.54557 0.56664 1.1762 1.8829 1.7148 2.9416 1.2048 1.0503-0.50598 1.4519-1.8535 0.90473-3.0233-0.08131-0.1685-0.1931-0.41342-0.27733-0.57286-0.352-0.66629-0.75111-1.1136-1.1412-1.6958-0.80558-1.2601-1.4738-2.3071-1.8868-3.378-0.17271-0.55234 0.02917-0.89586 0.16367-1.2548-0.08056-0.09237-0.25297-0.61396-0.35462-0.85927 5.886-3.4753 10.227-9.0232 12.266-15.43 0.27532 0.04326 0.75385 0.12793 0.90928 0.15912 0.32001-0.21105 0.61424-0.48644 1.1912-0.44101 1.136 0.16431 2.302 0.58627 3.7099 1.0912 0.65441 0.25068 1.1816 0.54165 1.9095 0.73651 0.15384 0.04117 0.37424 0.07957 0.55012 0.11822 0.01419 4e-3 0.02659 0.01032 0.04098 0.01359 0.0099 2e-3 0.02272 3e-3 0.03185 5e-3 1.2617 0.27162 2.487-0.41881 2.746-1.5549 0.25906-1.1358-0.5462-2.2888-1.8004-2.5914-0.18243-0.04147-0.44116-0.11193-0.61832-0.14548-0.7404-0.14022-1.343-0.10564-2.0414-0.16368-1.4875-0.15587-2.7196-0.28263-3.8145-0.6274-0.44639-0.17316-0.76395-0.70433-0.91839-0.92292l-0.85927-0.25006c0.44552-3.2231 0.32539-6.5776-0.44555-9.9335-0.77811-3.3876-2.1532-6.4859-3.9872-9.2156 0.22042-0.20038 0.63667-0.56898 0.75471-0.67742 0.03448-0.38177 5e-3 -0.78206 0.40008-1.2048 0.83674-0.78572 1.8918-1.4372 3.1643-2.2232 0.60401-0.35535 1.1623-0.58441 1.7685-1.032 0.13709-0.10123 0.32428-0.26152 0.46828-0.37736 1.0206-0.81418 1.2556-2.2184 0.52283-3.137-0.73279-0.9186-2.1528-1.0052-3.1734-0.19095-0.14527 0.11506-0.3424 0.26516-0.47282 0.37735-0.57125 0.49145-0.92404 0.97685-1.4048 1.4867-1.0493 1.0658-1.9167 1.955-2.8688 2.596-0.4126 0.2402-1.017 0.15709-1.2912 0.14094l-0.80927 0.5774c-4.6146-4.839-10.898-7.9326-17.662-8.5337-0.0189-0.28351-0.0437-0.79598-0.05002-0.9502-0.27696-0.26503-0.61153-0.49129-0.6956-1.0639-0.09255-1.1441 0.06198-2.375 0.24096-3.8599 0.0988-0.69379 0.26294-1.2702 0.29097-2.0232 0.0064-0.17118-4e-3 -0.41958-0.0045-0.60466-1.39e-4 -1.3056-0.95264-2.3642-2.1277-2.3641zm-2.6643 16.504-0.63195 11.162-0.04549 0.02272c-0.04237 0.99851-0.86417 1.7958-1.8731 1.7958-0.4133 0-0.79478-0.13272-1.1048-0.35917l-0.01816 0.0089-9.1519-6.4878c2.8128-2.7659 6.4106-4.8098 10.557-5.7513 0.7574-0.17197 1.5144-0.29956 2.2687-0.39099zm5.333 0c4.8409 0.59538 9.3176 2.7874 12.748 6.1467l-9.0929 6.4469-0.03185-0.01369c-0.80708 0.58946-1.9441 0.44321-2.5733-0.34553-0.2577-0.32311-0.39292-0.70304-0.40918-1.0866l-9e-3 -5e-3zm-21.477 10.312 8.3563 7.4744-0.0091 0.04544c0.75425 0.6557 0.86547 1.7935 0.23641 2.5824-0.25768 0.32313-0.60261 0.53986-0.97294 0.64105l-0.0091 0.03641-10.711 3.0916c-0.54517-4.9851 0.62974-9.8309 3.1097-13.871zm37.558 5e-3c1.2416 2.0124 2.1818 4.2601 2.7415 6.6969 0.55299 2.4076 0.69178 4.8108 0.46374 7.1334l-10.766-3.1007-9e-3 -0.04544c-0.96409-0.26352-1.5565-1.2442-1.3321-2.2278 0.09194-0.40294 0.30584-0.74381 0.59558-0.99564l-0.0045-0.02272 8.3109-7.4379zm-20.463 8.0472h3.4235l2.1277 2.6597-0.76381 3.3189-3.0734 1.4776-3.0825-1.4821-0.7638-3.3189zm10.975 9.1014c0.14548-0.0069 0.29033 6e-3 0.43191 0.03185l0.01816-0.02272 11.079 1.8731c-1.6215 4.5556-4.7243 8.5022-8.87 11.143l-4.3009-10.389 0.01364-0.01816c-0.39508-0.91802 2.93e-4 -1.9945 0.90929-2.4324 0.23272-0.11207 0.47586-0.17414 0.71834-0.1864zm-18.609 0.04544c0.84552 0.01191 1.6039 0.5987 1.8004 1.4594 0.09197 0.40294 0.04723 0.80217-0.10457 1.1548l0.03185 0.04088-4.2555 10.284c-3.9787-2.553-7.1476-6.3757-8.8428-11.066l10.984-1.8641 0.01817 0.02272c0.12287-0.02262 0.24748-0.03344 0.36826-0.03185zm9.2793 4.5055c0.29453-0.01081 0.59338 0.04961 0.87746 0.1864 0.37237 0.17931 0.66003 0.46166 0.8411 0.80017h0.04093l5.4148 9.7839c-0.70273 0.23559-1.4251 0.43692-2.1641 0.60468-4.1412 0.94026-8.2692 0.65536-12.007-0.61832l5.4011-9.7658h0.0091c0.3241-0.60586 0.93874-0.96732 1.5867-0.99112z" color="#000000" fill="#fff" stroke="#fff" stroke-width=".036372" style="text-decoration-line:none;text-indent:0;text-transform:none"/>
</g>
</svg>
