<?xml version="1.0" encoding="UTF-8" standalone="no"?>
<svg
   xmlns:dc="http://purl.org/dc/elements/1.1/"
   xmlns:cc="http://creativecommons.org/ns#"
   xmlns:rdf="http://www.w3.org/1999/02/22-rdf-syntax-ns#"
   xmlns:svg="http://www.w3.org/2000/svg"
   xmlns="http://www.w3.org/2000/svg"
   version="1.1"
   id="svg2"
   height="311.08771"
   width="320">
  <defs
     id="defs4" />
  <metadata
     id="metadata7">
    <rdf:RDF>
      <cc:Work
         rdf:about="">
        <dc:format>image/svg+xml</dc:format>
        <dc:type
           rdf:resource="http://purl.org/dc/dcmitype/StillImage" />
        <dc:title></dc:title>
      </cc:Work>
    </rdf:RDF>
  </metadata>
  <g
     transform="translate(-6.3259056,-565.63105)"
     id="layer1">
    <path
       style="display:inline;fill:#326ce5;fill-opacity:1;stroke:#ffffff;stroke-width:0;stroke-miterlimit:4;stroke-dasharray:none;stroke-opacity:1"
       d="m 165.2859,575.65671 a 19.943744,19.780532 0 0 0 -7.64303,1.9341 L 53.348196,627.4239 a 19.943744,19.780532 0 0 0 -10.790944,13.41865 l -25.7302,111.9377 a 19.943744,19.780532 0 0 0 2.70774,15.16602 19.943744,19.780532 0 0 0 1.133783,1.57395 L 92.85719,859.2758 a 19.943744,19.780532 0 0 0 15.59285,7.44295 l 115.76588,-0.0267 a 19.943744,19.780532 0 0 0 15.59285,-7.42961 l 72.16194,-89.76891 a 19.943744,19.780532 0 0 0 3.85486,-16.73997 L 290.05536,640.81587 A 19.943744,19.780532 0 0 0 279.26441,627.39722 L 174.9564,577.59081 a 19.943744,19.780532 0 0 0 -9.6705,-1.9341 z"
       id="path3055" />
    <path
       id="path3059"
       d="m 166.31934,613.75058 c -3.44754,3.5e-4 -6.24289,3.10562 -6.24248,6.93609 1e-5,0.0588 0.012,0.11496 0.0133,0.1734 -0.005,0.52046 -0.0302,1.14749 -0.0133,1.60063 0.0822,2.2093 0.56381,3.90021 0.85367,5.93569 0.52513,4.35657 0.96515,7.9679 0.69361,11.32449 -0.26408,1.26574 -1.19637,2.42332 -2.02747,3.22794 l -0.14672,2.64105 c -3.74626,0.31038 -7.51759,0.87874 -11.28448,1.73402 -16.20892,3.68026 -30.16452,12.02955 -40.7895,23.30257 -0.68943,-0.47034 -1.89559,-1.33563 -2.25425,-1.60063 -1.11454,0.15051 -2.24097,0.4944 -3.70813,-0.36015 -2.793604,-1.88048 -5.337956,-4.47619 -8.416671,-7.60301 -1.410684,-1.49571 -2.432248,-2.91999 -4.108296,-4.36173 -0.380618,-0.32741 -0.961481,-0.77025 -1.387216,-1.1071 -1.310335,-1.04472 -2.855831,-1.58955 -4.34839,-1.64065 -1.919007,-0.0657 -3.766374,0.68458 -4.975306,2.20087 -2.149208,2.69563 -1.46111,6.81573 1.533942,9.20365 0.03039,0.0242 0.06275,0.043 0.09337,0.0667 0.411564,0.33362 0.915546,0.7611 1.293846,1.04041 1.77857,1.31318 3.403248,1.98541 5.175385,3.02787 3.733533,2.30568 6.828678,4.2175 9.28368,6.52258 0.958682,1.02192 1.12624,2.82263 1.25383,3.60143 l 2.000793,1.78738 c -10.710771,16.11889 -15.667804,36.02898 -12.738361,56.31565 l -2.61437,0.7603 c -0.689041,0.88979 -1.6627,2.28987 -2.681084,2.70774 -3.211995,1.01169 -6.826915,1.3832 -11.191102,1.84073 -2.048945,0.17037 -3.816844,0.0687 -5.989041,0.48019 -0.47809,0.0906 -1.144228,0.26412 -1.667328,0.38682 -0.01818,0.004 -0.03517,0.009 -0.05335,0.0133 -0.02851,0.007 -0.06597,0.0204 -0.09337,0.0267 -3.679385,0.88901 -6.043032,4.27092 -5.282094,7.60301 0.761116,3.33288 4.355066,5.35968 8.056527,4.56181 0.02672,-0.006 0.06552,-0.007 0.09337,-0.0133 0.04179,-0.01 0.07858,-0.0298 0.120048,-0.04 0.51598,-0.11327 1.162602,-0.23929 1.613973,-0.36014 2.135605,-0.57181 3.682287,-1.41196 5.60222,-2.14752 4.130465,-1.48145 7.551465,-2.71904 10.884315,-3.20127 1.391988,-0.10902 2.858566,0.85886 3.588089,1.26717 l 2.721078,-0.46685 c 6.261759,19.41369 19.384393,35.10512 36.000933,44.95115 l -1.13378,2.72108 c 0.40866,1.05659 0.85939,2.48619 0.55498,3.52964 -1.21165,3.14202 -3.28705,6.45844 -5.65034,10.15578 -1.14428,1.70816 -2.31538,3.03378 -3.34799,4.98864 -0.24709,0.46777 -0.56179,1.18632 -0.80032,1.68067 -1.6044,3.43277 -0.42753,7.38648 2.65439,8.87018 3.10128,1.49302 6.95079,-0.0817 8.61675,-3.52139 0.003,-0.005 0.011,-0.008 0.0133,-0.0133 0.002,-0.004 -0.002,-0.01 0,-0.0133 0.2373,-0.48768 0.57347,-1.12871 0.77364,-1.58729 0.88446,-2.0262 1.17876,-3.76259 1.80072,-5.72227 1.65169,-4.14891 2.55917,-8.50216 4.83288,-11.21473 0.62262,-0.7428 1.63769,-1.02846 2.6901,-1.31024 l 1.41389,-2.56101 c 14.48606,5.5603 30.70088,7.05238 46.89859,3.37467 3.69511,-0.83898 7.26238,-1.92479 10.71092,-3.22795 0.39737,0.70485 1.13586,2.05979 1.33386,2.40096 1.06947,0.34794 2.23681,0.52762 3.18793,1.9341 1.70111,2.90631 2.86445,6.34455 4.2817,10.49749 0.62206,1.95965 0.92948,3.69611 1.81405,5.72227 0.20161,0.46181 0.5361,1.11185 0.77364,1.60063 1.66245,3.4509 5.52416,5.03098 8.63009,3.53474 3.08154,-1.4845 4.25971,-5.43785 2.65438,-8.87019 -0.23855,-0.49433 -0.56654,-1.21291 -0.81365,-1.68066 -1.03272,-1.95481 -2.20363,-3.26721 -3.348,-4.97531 -2.36348,-3.69722 -4.32371,-6.76863 -5.53553,-9.91059 -0.5067,-1.62051 0.0855,-2.62835 0.48019,-3.68146 -0.23637,-0.27094 -0.74218,-1.80129 -1.04041,-2.521 17.26867,-10.19632 30.00595,-26.47291 35.9876,-45.27128 0.80774,0.12695 2.21167,0.37534 2.66772,0.46685 0.93885,-0.61921 1.80208,-1.42713 3.49472,-1.29384 3.33287,0.48205 6.75378,1.72003 10.88432,3.20127 1.91997,0.73546 3.46659,1.58916 5.60222,2.16085 0.45137,0.12083 1.09798,0.23357 1.61397,0.34681 0.0415,0.0101 0.0782,0.0305 0.12005,0.04 0.0279,0.006 0.0667,0.007 0.0934,0.0133 3.70167,0.79688 7.29626,-1.22874 8.05653,-4.56181 0.76008,-3.33229 -1.60247,-6.71499 -5.2821,-7.60301 -0.53522,-0.12171 -1.29427,-0.3284 -1.81405,-0.42684 -2.17222,-0.41138 -3.94009,-0.30993 -5.98904,-0.48019 -4.36421,-0.4573 -7.97906,-0.82921 -11.1911,-1.84073 -1.30965,-0.50805 -2.24133,-2.06641 -2.69443,-2.70774 l -2.521,-0.73362 c 1.30709,-9.4563 0.95464,-19.29783 -1.30718,-29.14489 -2.28288,-9.93875 -6.31733,-19.0287 -11.69797,-27.03738 0.64668,-0.58788 1.86791,-1.66932 2.21421,-1.98746 0.10123,-1.12009 0.0143,-2.29447 1.1738,-3.53473 2.45488,-2.30521 5.55027,-4.21671 9.28368,-6.52259 1.77208,-1.04255 3.41022,-1.71459 5.18872,-3.02787 0.40219,-0.29697 0.95138,-0.76727 1.37388,-1.1071 2.99442,-2.38871 3.68384,-6.50857 1.53394,-9.20365 -2.1499,-2.69507 -6.31594,-2.94894 -9.31036,-0.56022 -0.42622,0.33756 -1.00457,0.77792 -1.38721,1.1071 -1.67597,1.44184 -2.71103,2.86595 -4.12164,4.36173 -3.07855,3.12698 -5.62316,5.73573 -8.41667,7.61636 -1.21051,0.70473 -2.98356,0.46088 -3.78818,0.41349 l -2.37428,1.69401 c -13.53872,-14.19681 -31.97199,-23.27342 -51.82045,-25.03661 -0.0555,-0.83179 -0.12825,-2.3353 -0.14673,-2.78778 -0.81257,-0.77754 -1.79417,-1.44136 -2.04081,-3.12123 -0.27154,-3.35659 0.18182,-6.96792 0.70695,-11.32449 0.28986,-2.03548 0.77145,-3.72639 0.85367,-5.93569 0.0187,-0.50223 -0.0113,-1.231 -0.0133,-1.77403 -4.1e-4,-3.83047 -2.79494,-6.93644 -6.24247,-6.93609 z m -7.81643,48.4192 -1.85407,32.74631 -0.13339,0.0667 c -0.12435,2.92953 -2.53539,5.26876 -5.49551,5.26876 -1.21256,0 -2.33178,-0.3894 -3.24129,-1.05375 l -0.0533,0.0267 -26.85064,-19.03421 c 8.25229,-8.11464 18.80763,-14.11136 30.97227,-16.87335 2.22211,-0.50454 4.44322,-0.8789 6.65598,-1.14712 z m 15.6462,0 c 14.20231,1.74674 27.3367,8.17767 37.40149,18.03381 l -26.67724,18.91416 -0.0934,-0.04 c -2.36785,1.72941 -5.70399,1.30031 -7.54966,-1.01374 -0.75606,-0.94798 -1.15277,-2.06263 -1.20048,-3.18793 l -0.0267,-0.0133 z m -63.01165,30.25199 24.51639,21.92869 -0.0267,0.13339 c 2.21288,1.92373 2.5392,5.262 0.69361,7.57633 -0.75601,0.94803 -1.76799,1.58388 -2.85447,1.88075 l -0.0267,0.10671 -31.42579,9.07026 c -1.59948,-14.62561 1.84758,-28.84285 9.12361,-40.69613 z m 110.19035,0.0133 c 3.64266,5.90424 6.40106,12.49867 8.04319,19.64779 1.62243,7.0634 2.0296,14.11417 1.36054,20.9283 l -31.58586,-9.09694 -0.0267,-0.13339 c -2.82843,-0.77301 -4.56669,-3.65014 -3.90822,-6.53592 0.26977,-1.18217 0.8973,-2.18226 1.74736,-2.92116 l -0.0133,-0.0667 24.383,-21.82199 z m -60.03713,23.60936 h 10.04398 l 6.24247,7.8031 -2.24089,9.73719 -9.0169,4.33505 -9.04359,-4.34839 -2.24089,-9.73719 z m 32.19943,26.70392 c 0.42682,-0.0216 0.85178,0.0169 1.26717,0.0934 l 0.0533,-0.0667 32.50622,5.49551 c -4.7573,13.36555 -13.86056,24.94436 -26.02365,32.69296 l -12.61833,-30.47875 0.04,-0.0534 c -1.15912,-2.69333 8.5e-4,-5.85174 2.66772,-7.13617 0.68279,-0.32883 1.39614,-0.51092 2.10751,-0.54688 z m -54.59498,0.13339 c 2.48066,0.0348 4.70571,1.75653 5.2821,4.28169 0.26984,1.18216 0.13851,2.35347 -0.30679,3.38801 l 0.0934,0.12005 -12.48495,30.17196 c -11.67275,-7.49037 -20.97013,-18.70567 -25.94362,-32.46618 l 32.22611,-5.46883 0.0533,0.0667 c 0.36047,-0.0663 0.72605,-0.0983 1.08043,-0.0934 z m 27.22413,13.21859 c 0.86411,-0.0318 1.74091,0.14554 2.57435,0.54688 1.09249,0.52609 1.93644,1.35444 2.46765,2.3476 h 0.12004 l 15.8863,28.70471 c -2.06174,0.69115 -4.18132,1.28183 -6.34918,1.77404 -12.14968,2.7586 -24.26076,1.92275 -35.2273,-1.81405 l 15.84628,-28.65136 h 0.0267 c 0.95085,-1.77752 2.75414,-2.83798 4.65518,-2.90782 z"
       style="color:#000000;font-style:normal;font-variant:normal;font-weight:normal;font-stretch:normal;font-size:medium;line-height:normal;font-family:Sans;-inkscape-font-specification:Sans;text-indent:0;text-align:start;text-decoration:none;text-decoration-line:none;letter-spacing:normal;word-spacing:normal;text-transform:none;writing-mode:lr-tb;direction:ltr;baseline-shift:baseline;text-anchor:start;display:inline;overflow:visible;visibility:visible;fill:#ffffff;fill-opacity:1;stroke:#ffffff;stroke-width:0.10670897;stroke-miterlimit:4;stroke-dasharray:none;stroke-opacity:1;marker:none;enable-background:accumulate" />
  </g>
</svg>
