<?xml version="1.0" encoding="UTF-8" standalone="no"?>
<!-- Generator: Adobe Illustrator 16.0.4, SVG Export Plug-In . SVG Version: 6.00 Build 0)  -->

<svg
   xmlns:dc="http://purl.org/dc/elements/1.1/"
   xmlns:cc="http://creativecommons.org/ns#"
   xmlns:rdf="http://www.w3.org/1999/02/22-rdf-syntax-ns#"
   xmlns:svg="http://www.w3.org/2000/svg"
   xmlns="http://www.w3.org/2000/svg"
   xmlns:sodipodi="http://sodipodi.sourceforge.net/DTD/sodipodi-0.dtd"
   xmlns:inkscape="http://www.inkscape.org/namespaces/inkscape"
   version="1.1"
   id="AW"
   x="0px"
   y="0px"
   width="701.99646"
   height="702"
   viewBox="0 0 701.99645 701.99998"
   enable-background="new 0 0 1417.323 841.89"
   xml:space="preserve"
   sodipodi:docname="landscape.svg"
   inkscape:version="0.92.3 (2405546, 2018-03-11)"><metadata
   id="metadata35"><rdf:RDF><cc:Work
       rdf:about=""><dc:format>image/svg+xml</dc:format><dc:type
         rdf:resource="http://purl.org/dc/dcmitype/StillImage" /><dc:title></dc:title></cc:Work></rdf:RDF></metadata><defs
   id="defs33" /><sodipodi:namedview
   pagecolor="#ffffff"
   bordercolor="#666666"
   borderopacity="1"
   objecttolerance="10"
   gridtolerance="10"
   guidetolerance="10"
   inkscape:pageopacity="0"
   inkscape:pageshadow="2"
   inkscape:window-width="1065"
   inkscape:window-height="480"
   id="namedview31"
   showgrid="false"
   inkscape:zoom="0.26034997"
   inkscape:cx="579.5015"
   inkscape:cy="100.34902"
   inkscape:window-x="67"
   inkscape:window-y="29"
   inkscape:window-maximized="0"
   inkscape:current-layer="g28" />
<g
   id="g28"
   transform="translate(-129.16,180.70597)">
	
	<g
   id="g26"
   transform="matrix(3.5378428,0,0,3.5378428,-327.78778,-1322.9622)">
		<path
   d="m 327.585,422.082 c 0,54.786 -44.413,99.212 -99.212,99.212 -54.786,0 -99.213,-44.426 -99.213,-99.212 0,-54.8 44.427,-99.214 99.213,-99.214 54.799,0 99.212,44.414 99.212,99.214 z"
   id="path22"
   inkscape:connector-curvature="0"
   style="fill:#e95420" />
		<path
   d="m 279.396,447.594 c 0,-1.565 -1.269,-2.835 -2.834,-2.835 h -53.858 v -87.875 c 0,-0.752 -0.298,-1.473 -0.83,-2.005 -0.533,-0.531 -1.253,-0.83 -2.005,-0.83 h -22.677 c -1.565,0 -2.835,1.27 -2.835,2.835 V 470.27 c 0,1.565 1.27,2.835 2.835,2.835 h 68.032 c 0.751,0 1.473,-0.299 2.004,-0.831 0.532,-0.531 0.83,-1.253 0.83,-2.004 v -11.339 c 0,-1.565 -1.27,-2.834 -2.835,-2.834 h -53.858 v -90.709 h -5.669 v 93.543 c 0,1.565 1.269,2.835 2.834,2.835 h 53.858 v 5.669 H 200.026 V 359.719 h 17.008 v 87.875 c 0,1.565 1.269,2.834 2.834,2.834 h 53.858 v 28.347 h -85.039 v -121.89 c 0,-1.566 -1.269,-2.835 -2.835,-2.835 -1.565,0 -2.835,1.269 -2.835,2.835 V 481.61 c 0,1.565 1.271,2.834 2.835,2.834 h 90.708 c 0.753,0 1.473,-0.298 2.004,-0.83 0.532,-0.531 0.831,-1.253 0.831,-2.004 z"
   id="path24"
   inkscape:connector-curvature="0"
   style="fill:#ffffff" />
	</g>
</g>
</svg>