<?xml version="1.0" encoding="UTF-8" standalone="no"?>
<!-- Created with Inkscape (http://www.inkscape.org/) -->

<svg
   xmlns:dc="http://purl.org/dc/elements/1.1/"
   xmlns:cc="http://creativecommons.org/ns#"
   xmlns:rdf="http://www.w3.org/1999/02/22-rdf-syntax-ns#"
   xmlns:svg="http://www.w3.org/2000/svg"
   xmlns="http://www.w3.org/2000/svg"
   xmlns:sodipodi="http://sodipodi.sourceforge.net/DTD/sodipodi-0.dtd"
   xmlns:inkscape="http://www.inkscape.org/namespaces/inkscape"
   width="96"
   height="96"
   id="svg6517"
   version="1.1"
   inkscape:version="0.91+devel r"
   sodipodi:docname="memcached.svg"
   viewBox="0 0 96 96">
  <defs
     id="defs6519">
    <linearGradient
       id="Background">
      <stop
         id="stop4178"
         offset="0"
         style="stop-color:#574c4a;stop-opacity:1" />
      <stop
         id="stop4180"
         offset="1"
         style="stop-color:#80716d;stop-opacity:1" />
    </linearGradient>
    <filter
       style="color-interpolation-filters:sRGB"
       inkscape:label="Inner Shadow"
       id="filter1121">
      <feFlood
         flood-opacity="0.59999999999999998"
         flood-color="rgb(0,0,0)"
         result="flood"
         id="feFlood1123" />
      <feComposite
         in="flood"
         in2="SourceGraphic"
         operator="out"
         result="composite1"
         id="feComposite1125" />
      <feGaussianBlur
         in="composite1"
         stdDeviation="1"
         result="blur"
         id="feGaussianBlur1127" />
      <feOffset
         dx="0"
         dy="2"
         result="offset"
         id="feOffset1129" />
      <feComposite
         in="offset"
         in2="SourceGraphic"
         operator="atop"
         result="composite2"
         id="feComposite1131" />
    </filter>
    <filter
       style="color-interpolation-filters:sRGB"
       inkscape:label="Drop Shadow"
       id="filter950">
      <feFlood
         flood-opacity="0.25"
         flood-color="rgb(0,0,0)"
         result="flood"
         id="feFlood952" />
      <feComposite
         in="flood"
         in2="SourceGraphic"
         operator="in"
         result="composite1"
         id="feComposite954" />
      <feGaussianBlur
         in="composite1"
         stdDeviation="1"
         result="blur"
         id="feGaussianBlur956" />
      <feOffset
         dx="0"
         dy="1"
         result="offset"
         id="feOffset958" />
      <feComposite
         in="SourceGraphic"
         in2="offset"
         operator="over"
         result="composite2"
         id="feComposite960" />
    </filter>
    <clipPath
       clipPathUnits="userSpaceOnUse"
       id="clipPath873">
      <g
         transform="matrix(0,-0.66666667,0.66604479,0,-258.25992,677.00001)"
         id="g875"
         inkscape:label="Layer 1"
         style="display:inline;fill:#ff00ff;fill-opacity:1;stroke:none">
        <path
           style="display:inline;fill:#ff00ff;fill-opacity:1;stroke:none"
           d="M 46.702703,898.22775 H 97.297297 C 138.16216,898.22775 144,904.06497 144,944.92583 v 50.73846 c 0,40.86071 -5.83784,46.69791 -46.702703,46.69791 H 46.702703 C 5.8378378,1042.3622 0,1036.525 0,995.66429 v -50.73846 c 0,-40.86086 5.8378378,-46.69808 46.702703,-46.69808 z"
           id="path877"
           inkscape:connector-curvature="0"
           sodipodi:nodetypes="sssssssss" />
      </g>
    </clipPath>
    <clipPath
       clipPathUnits="userSpaceOnUse"
       id="clipPath874">
      <path
         sodipodi:nodetypes="cccssczcssccccscc"
         inkscape:connector-curvature="0"
         id="path876"
         d="m -414.0975,764.53909 c -7.8125,17.9106 -1.95313,49.75167 -1.95313,49.75167 h 12.69531 c 0,-2.9851 -0.83592,-4.55148 -1.19017,-6.62319 -3.77705,-22.08828 -2.54859,-29.19801 -0.76295,-29.19801 1.95312,0 10.74219,24.87583 10.74219,24.87583 0,0 1.95313,-0.49751 3.90625,-0.49751 1.95312,0 3.90625,0.49751 3.90625,0.49751 0,0 8.78906,-24.87583 10.74218,-24.87583 1.78565,0 3.01411,7.10973 -0.76293,29.19801 -0.35426,2.07171 -1.19019,3.63809 -1.19019,6.62319 h 12.69532 c 0,0 5.85937,-31.84107 -1.95314,-49.75167 h -11.71874 c -3.3378,-0.20005 -10.74219,14.9255 -11.71875,14.9255 -0.97657,0 -8.38095,-15.12555 -11.71875,-14.9255 z"
         style="color:#000000;display:inline;overflow:visible;visibility:visible;opacity:0.47400004;fill:#ff00ff;fill-opacity:1;fill-rule:nonzero;stroke:none;stroke-width:0.5;marker:none;enable-background:accumulate" />
    </clipPath>
    <clipPath
       clipPathUnits="userSpaceOnUse"
       id="clipPath896">
      <path
         sodipodi:nodetypes="cccssczcssccccscc"
         inkscape:connector-curvature="0"
         id="path898"
         d="m -414.0975,764.53909 c -7.8125,17.9106 -1.95313,49.75167 -1.95313,49.75167 h 12.69531 c 0,-2.9851 -0.83592,-4.55148 -1.19017,-6.62319 -3.77705,-22.08828 -2.54859,-29.19801 -0.76295,-29.19801 1.95312,0 10.74219,24.87583 10.74219,24.87583 0,0 1.95313,-0.49751 3.90625,-0.49751 1.95312,0 3.90625,0.49751 3.90625,0.49751 0,0 8.78906,-24.87583 10.74218,-24.87583 1.78565,0 3.01411,7.10973 -0.76293,29.19801 -0.35426,2.07171 -1.19019,3.63809 -1.19019,6.62319 h 12.69532 c 0,0 5.85937,-31.84107 -1.95314,-49.75167 h -11.71874 c -3.3378,-0.20005 -10.74219,14.9255 -11.71875,14.9255 -0.97657,0 -8.38095,-15.12555 -11.71875,-14.9255 z"
         style="color:#000000;display:inline;overflow:visible;visibility:visible;fill:#ff00ff;fill-opacity:1;fill-rule:nonzero;stroke:none;stroke-width:0.5;marker:none;enable-background:accumulate" />
    </clipPath>
  </defs>
  <sodipodi:namedview
     id="base"
     pagecolor="#ffffff"
     bordercolor="#666666"
     borderopacity="1.0"
     inkscape:pageopacity="0.0"
     inkscape:pageshadow="2"
     inkscape:zoom="7.9580786"
     inkscape:cx="-0.34069365"
     inkscape:cy="36.582487"
     inkscape:document-units="px"
     inkscape:current-layer="layer1"
     showgrid="false"
     fit-margin-top="0"
     fit-margin-left="0"
     fit-margin-right="0"
     fit-margin-bottom="0"
     inkscape:window-width="1920"
     inkscape:window-height="1029"
     inkscape:window-x="0"
     inkscape:window-y="24"
     inkscape:window-maximized="1"
     showborder="true"
     showguides="true"
     inkscape:guide-bbox="true"
     inkscape:showpageshadow="false"
     inkscape:snap-global="true"
     inkscape:snap-bbox="true"
     inkscape:bbox-paths="true"
     inkscape:bbox-nodes="true"
     inkscape:snap-bbox-edge-midpoints="true"
     inkscape:snap-bbox-midpoints="true"
     inkscape:snap-intersection-paths="true"
     inkscape:object-paths="true"
     inkscape:object-nodes="true"
     inkscape:snap-smooth-nodes="true"
     inkscape:snap-midpoints="true"
     inkscape:snap-object-midpoints="true"
     inkscape:snap-center="true"
     inkscape:snap-page="true">
    <inkscape:grid
       type="xygrid"
       id="grid821" />
    <sodipodi:guide
       orientation="1,0"
       position="16,48"
       id="guide823"
       inkscape:locked="false" />
    <sodipodi:guide
       orientation="0,1"
       position="64,80"
       id="guide825"
       inkscape:locked="false" />
    <sodipodi:guide
       orientation="1,0"
       position="80,40"
       id="guide827"
       inkscape:locked="false" />
    <sodipodi:guide
       orientation="0,1"
       position="64,16"
       id="guide829"
       inkscape:locked="false" />
  </sodipodi:namedview>
  <metadata
     id="metadata6522">
    <rdf:RDF>
      <cc:Work
         rdf:about="">
        <dc:format>image/svg+xml</dc:format>
        <dc:type
           rdf:resource="http://purl.org/dc/dcmitype/StillImage" />
        <dc:title />
      </cc:Work>
    </rdf:RDF>
  </metadata>
  <g
     inkscape:label="BACKGROUND"
     inkscape:groupmode="layer"
     id="layer1"
     transform="translate(268,-635.29076)"
     style="display:inline">
    <path
       style="display:inline;fill:#6e615e;fill-opacity:1;stroke:none"
       d="M 48 0 A 48.000002 48.000002 0 0 0 0 48 A 48.000002 48.000002 0 0 0 48 96 A 48.000002 48.000002 0 0 0 96 48 A 48.000002 48.000002 0 0 0 48 0 z "
       transform="translate(-268,635.29076)"
       id="path6455" />
    <g
       id="g936"
       transform="matrix(1.1636363,0,0,1.1636363,234.58616,-235.88178)"
       style="">
      <path
         style="color:#000000;display:inline;overflow:visible;visibility:visible;fill:#24a7a3;fill-opacity:1;fill-rule:nonzero;stroke:none;stroke-width:0.5;marker:none;enable-background:accumulate"
         d="M 20.71875,18.09375 C 15.999994,48.000003 18.46875,76 18.46875,76 h 14.75 c -1.403467,-7.465748 -6.438337,-41.574887 -2.25,-41.6875 2.244621,0.356285 12.5,28.9375 12.5,28.9375 0,0 2.258529,-0.28125 4.53125,-0.28125 2.272721,0 4.53125,0.28125 4.53125,0.28125 0,0 10.25538,-28.581218 12.5,-28.9375 4.188346,0.112605 -0.846538,34.221761 -2.25,41.6875 h 14.75 c 0,0 2.468755,-28.000006 -2.25,-57.90625 H 61.625 c -2.599296,0.03074 -12.488628,17.375 -13.625,17.375 -1.136372,0 -11.025704,-17.344257 -13.625,-17.375 z"
         transform="matrix(0.85937505,0,0,0.85937505,-431.91,748.66394)"
         id="path874"
         inkscape:connector-curvature="0" />
      <circle
         style="color:#000000;display:inline;overflow:visible;visibility:visible;fill:#f04242;fill-opacity:1;fill-rule:nonzero;stroke:none;stroke-width:0.5;marker:none;enable-background:accumulate"
         id="path893"
         transform="translate(-268.16,633.97645)"
         cx="-128"
         cy="177"
         r="3" />
      <circle
         transform="translate(-257.16,633.97645)"
         id="path897"
         style="color:#000000;display:inline;overflow:visible;visibility:visible;fill:#f04242;fill-opacity:1;fill-rule:nonzero;stroke:none;stroke-width:0.5;marker:none;enable-background:accumulate"
         cx="-128"
         cy="177"
         r="3" />
      <path
         style="color:#000000;display:inline;overflow:visible;visibility:visible;opacity:0.1;fill:#000000;fill-opacity:1;fill-rule:nonzero;stroke:none;stroke-width:0.5;marker:none;enable-background:accumulate;"
         d="m 74.586,19.082419 c 2.128647,14.408265 2.628081,28.236362 2.588904,38.536764 C 77.134832,68.154976 76.53125,75 76.53125,75 H 64.115606 l -1.334356,1 h 14.75 c 0,0 2.468755,-28.000006 -2.25,-57.90625 z M 35.5,18.71875 c 3.87485,4.310209 10.576698,15.75 11.5,15.75 -2.456913,-3.142211 -8.491861,-13.166503 -11.5,-15.75 z M 29.96875,33.3125 c -4.188334,0.112617 0.846538,34.221749 2.25,41.6875 H 19.342723 l -0.873973,1 h 14.75 c -1.396355,-7.427915 -6.386936,-41.234194 -2.3125,-41.6875 -0.379415,-0.569825 -0.707116,-0.963432 -0.9375,-1 z m 34.0625,0 c -2.24462,0.356282 -12.5,28.9375 -12.5,28.9375 0,0 -2.258529,-0.28125 -4.53125,-0.28125 -1.344727,0 -2.502409,0.08286 -3.285254,0.15581 L 43.46875,63.25 c 0,0 2.258529,-0.28125 4.53125,-0.28125 2.272721,0 4.53125,0.28125 4.53125,0.28125 0,0 10.178153,-28.393722 12.46875,-28.9375 -0.246827,-0.625255 -0.551785,-0.988786 -0.96875,-1 z"
         transform="matrix(0.85937505,0,0,0.85937505,-431.91,748.66394)"
         id="path902"
         inkscape:connector-curvature="0"
         sodipodi:nodetypes="csccccccccccccccccccsccsccc" />
      <path
         style="color:#000000;display:inline;overflow:visible;visibility:visible;opacity:0.3;fill:#ffffff;fill-opacity:1;fill-rule:nonzero;stroke:none;stroke-width:0.5;marker:none;enable-background:accumulate;"
         d="M 20.71875,18.09375 C 15.999994,48.000003 18.46875,76 18.46875,76 l 0.86851,-0.976213 C 18.892832,68.417813 17.705457,44.528959 21.71875,19.09375 H 35.375 c 0.289297,0.0034 0.677213,0.240424 1.125,0.625 -0.894196,-0.994664 -1.637632,-1.619236 -2.125,-1.625 z m 40.90625,0 c -2.599296,0.03074 -12.488628,17.375 -13.625,17.375 0.46341,0.592666 0.839745,1 1,1 1.136372,0 11.025704,-17.34428 13.625,-17.375 h 12.051367 l 0.604883,-1 z M 31.90625,35.3125 c 3.317202,4.981951 11.5625,27.9375 11.5625,27.9375 l 0.241264,-1.119363 C 41.674284,56.548552 33.917574,35.621831 31.96875,35.3125 c -0.02123,5.71e-4 -0.04175,-0.0023 -0.0625,0 z m 34.125,0 c 2.225022,5.674964 -1.986884,33.968335 -3.25,40.6875 l 1.338036,-1.044376 C 65.827258,64.934912 69.939991,35.41762 66.03125,35.3125 Z"
         transform="matrix(0.85937505,0,0,0.85937505,-431.91,748.66394)"
         id="path889"
         inkscape:connector-curvature="0"
         sodipodi:nodetypes="ccccccccccsccccccccccccc" />
    </g>
  </g>
</svg>
