<?xml version="1.0" encoding="UTF-8"?>
<svg width="100px" height="100px" viewBox="0 0 100 100" version="1.1" xmlns="http://www.w3.org/2000/svg" xmlns:xlink="http://www.w3.org/1999/xlink">
    <!-- Generator: Sketch 45.2 (43514) - http://www.bohemiancoding.com/sketch -->
    <title>telegraf</title>
    <desc>Created with Sketch.</desc>
    <defs></defs>
    <g id="Page-1" stroke="none" stroke-width="1" fill="none" fill-rule="evenodd">
        <g id="telegraf" fill-rule="nonzero">
            <path d="M50,0 C22.3857625,-1.69088438e-15 3.38176876e-15,22.3857625 0,50 C-3.38176876e-15,77.6142375 22.3857625,100 50,100 C63.2608245,100 75.9785201,94.732158 85.3553391,85.3553391 C94.732158,75.9785201 100,63.2608245 100,50 C100,22.3857625 77.6142375,1.69088438e-15 50,0 Z" id="Mask" fill="#333342"></path>
            <path d="M77.1614039,55.7822278 L71.8347455,32.5131414 C71.5543951,31.2515645 70.3629057,29.9899875 69.1013288,29.6395494 L44.640753,22.1401752 C44.290315,22.0700876 43.9398769,22 43.5894389,22 C42.5381248,22 41.416723,22.4205257 40.7859345,23.0513141 L23.2640321,39.3116395 C22.3528932,40.1526909 21.7921923,41.8347935 22.0725428,43.0963705 L27.7496391,67.9774718 C28.0299896,69.2390488 29.2214789,70.5006258 30.4830559,70.8510638 L53.3316166,77.8598248 C53.6820547,77.9299124 54.0324927,78 54.3829308,78 C55.4342449,78 56.5556467,77.5794743 57.1864351,76.9486859 L75.8998269,59.5669587 C76.951141,58.7259074 77.4417543,57.0438048 77.1614039,55.7822278 Z M47.163907,27.6070088 L63.9148457,32.7234043 C64.5456341,32.9336671 64.5456341,33.2140175 63.9148457,33.3541927 L55.0838069,35.3867334 C54.3829308,35.5269086 53.4717918,35.2465582 53.0512662,34.7559449 L46.8835565,28.097622 C46.3929433,27.6770964 46.5331185,27.4668335 47.163907,27.6070088 Z M57.6069608,57.6745932 C57.747136,58.3754693 57.3266104,58.7259074 56.6958219,58.5156446 L38.6132186,52.9787234 C37.9824301,52.7684606 37.8422549,52.2077597 38.3328682,51.787234 L52.2102149,38.8911139 C52.7008281,38.4005006 53.261529,38.6107635 53.4017042,39.2415519 L57.6069608,57.6745932 Z M27.8197268,41.2740926 L42.5381248,27.6070088 C43.028738,27.1163955 43.7997017,27.1864831 44.290315,27.6770964 L51.649514,35.5969962 C52.1401273,36.0876095 52.0700397,36.8585732 51.5794264,37.3491865 L36.8610284,51.0162703 C36.3704151,51.5068836 35.5994514,51.436796 35.1088381,50.9461827 L27.7496391,43.0262829 C27.3291135,42.5356696 27.3291135,41.7647059 27.8197268,41.2740926 Z M31.3941948,63.0012516 L27.4692887,45.9699625 C27.3291135,45.2690864 27.5393763,45.1989987 28.0299896,45.689612 L34.1976992,52.3479349 C34.6883125,52.8385482 34.8985753,53.8197747 34.6883125,54.4505632 L32.0249833,63.0713392 C31.8848081,63.6320401 31.5343701,63.6320401 31.3941948,63.0012516 Z M52.911091,72.8836045 L33.7771736,66.9962453 C33.1463851,66.7859825 32.7258594,66.0851064 32.9361223,65.4543179 L36.0900647,55.0813517 C36.3003275,54.4505632 37.0012036,54.0300375 37.6319921,54.2403004 L56.7659095,60.1276596 C57.396698,60.3379224 57.8172236,61.0387985 57.6069608,61.669587 L54.4530184,72.0425532 C54.2427555,72.7434293 53.5418795,73.0938673 52.911091,72.8836045 Z M69.9423801,58.9361702 L57.1163475,70.8510638 C56.6257343,71.3416771 56.3453838,71.1314143 56.5556467,70.5006258 L59.2189758,61.8798498 C59.4292386,61.2490613 60.1301147,60.5481852 60.8309908,60.40801 L69.6620296,58.3754693 C70.2928181,58.2352941 70.4329933,58.5156446 69.9423801,58.9361702 Z M71.3441323,56.4130163 L60.7609032,58.795995 C60.0600271,58.9361702 59.4292386,58.5156446 59.2890634,57.8848561 L54.8034564,38.330413 C54.6632812,37.6295369 55.0838069,36.9987484 55.7145953,36.8585732 L66.2978244,34.4755945 C66.9987005,34.3354193 67.629489,34.7559449 67.7696642,35.3867334 L72.2552712,54.9411765 C72.3954464,55.571965 71.9749208,56.2728411 71.3441323,56.4130163 Z" id="symbol_2_" fill="#FFFFFF"></path>
        </g>
    </g>
</svg>